<svg xmlns="http://www.w3.org/2000/svg" width="322" height="186" viewBox="0 0 322 186">
  <g fill="none" fill-rule="evenodd">
    <path fill="#FF5AC3" stroke="#000" stroke-width="7" d="M20,32.5 L164,32.5 C168.69442,32.5 172.5,36.3055796 172.5,41 L172.5,165 C172.5,169.69442 168.69442,173.5 164,173.5 L20,173.5 C15.3055796,173.5 11.5,169.69442 11.5,165 L11.5,41 C11.5,36.3055796 15.3055796,32.5 20,32.5 Z"/>
    <path fill="#FF14BA" d="M17,111 L167,111 C168.104569,111 169,111.895431 169,113 L169,165 C169,167.761424 166.761424,170 164,170 L20,170 C17.2385763,170 15,167.761424 15,165 L15,113 C15,111.895431 15.8954305,111 17,111 Z"/>
    <path fill="#FFF" d="M89.3212891,71.4873047 C91.8945441,71.4873047 93.7068632,73.7008242 94.7583008,78.1279297 C107.320213,110.860841 113.670247,127.697424 113.808594,128.638184 L113.808594,129.177734 C113.808594,131.418957 112.452813,132.774737 109.741211,133.245117 L109.450684,133.245117 C106.960437,133.245117 105.258794,131.183777 104.345703,127.061035 L97.6635742,109.712402 L81.1450195,109.712402 L72.7612305,131.833984 C71.5161071,132.774744 70.4370163,133.245117 69.5239258,133.245117 L69.0673828,133.245117 C66.3557807,132.747068 65,131.349784 65,129.053223 L65,128.679688 L70.3955078,114.070312 C79.6647599,89.9425877 84.7143513,76.481622 85.5444336,73.6870117 C86.8725652,72.220533 88.1315045,71.4873047 89.3212891,71.4873047 Z"/>
    <polygon fill="#FF6FCA" points="94.426 101.121 89.404 87.964 84.548 101.121"/>
    <path fill="#FF14BA" stroke="#000" stroke-width="7" d="M12,6.5 L172,6.5 C175.037566,6.5 177.5,8.96243388 177.5,12 L177.5,40 C177.5,44.6944204 173.69442,48.5 169,48.5 L15,48.5 C10.3055796,48.5 6.5,44.6944204 6.5,40 L6.5,12 C6.5,8.96243388 8.96243388,6.5 12,6.5 Z"/>
    <path fill="#FF13A9" fill-rule="nonzero" stroke="#000" stroke-linecap="round" stroke-linejoin="round" stroke-width="4" d="M223.247636,43.9323909 L238.722112,46.6932389 C241.712458,47.2267555 243.704112,50.0834104 243.170595,53.0737562 C242.637078,56.064102 239.780424,58.0557555 236.790078,57.5222389 L200.645711,51.0736137 C196.423502,50.3203167 194.649832,45.2389912 197.486141,42.0218719 L221.766462,14.4816103 C223.775255,12.2031113 227.250792,11.9844714 229.529291,13.9932646 C231.80779,16.0020577 232.02643,19.4775948 230.017637,21.7560939 L219.622511,33.5468977 L307.687438,2.8072534 C310.555312,1.80620278 313.691696,3.31956275 314.692747,6.18743751 C315.693797,9.05531226 314.180437,12.191696 311.312562,13.1927466 L223.247636,43.9323909 Z"/>
  </g>
</svg>
