<svg xmlns="http://www.w3.org/2000/svg" xmlns:xlink="http://www.w3.org/1999/xlink" width="322" height="186" viewBox="0 0 322 186">
  <defs>
    <path id="a-in-box-2-a" d="M89.3212891,71.4873047 C91.8945441,71.4873047 93.7068632,73.7008242 94.7583008,78.1279297 C107.320213,110.860841 113.670247,127.697424 113.808594,128.638184 L113.808594,129.177734 C113.808594,131.418957 112.452813,132.774737 109.741211,133.245117 L109.450684,133.245117 C106.960437,133.245117 105.258794,131.183777 104.345703,127.061035 L97.6635742,109.712402 L81.1450195,109.712402 L72.7612305,131.833984 C71.5161071,132.774744 70.4370163,133.245117 69.5239258,133.245117 L69.0673828,133.245117 C66.3557807,132.747068 65,131.349784 65,129.053223 L65,128.679688 L70.3955078,114.070312 C79.6647599,89.9425877 84.7143513,76.481622 85.5444336,73.6870117 C86.8725652,72.220533 88.1315045,71.4873047 89.3212891,71.4873047 Z"/>
    <polygon id="a-in-box-2-b" points="94.426 101.121 89.404 87.964 84.548 101.121"/>
  </defs>
  <g fill="none" fill-rule="evenodd">
    <path fill="#FF6FCA" stroke="#000" stroke-width="7" d="M20,32.5 L164,32.5 C168.69442,32.5 172.5,36.3055796 172.5,41 L172.5,165 C172.5,169.69442 168.69442,173.5 164,173.5 L20,173.5 C15.3055796,173.5 11.5,169.69442 11.5,165 L11.5,41 C11.5,36.3055796 15.3055796,32.5 20,32.5 Z"/>
    <use fill="#545454" xlink:href="#a-in-box-2-a"/>
    <use fill="#FFF" xlink:href="#a-in-box-2-a"/>
    <use fill="#545454" xlink:href="#a-in-box-2-b"/>
    <use fill="#FF6FCA" xlink:href="#a-in-box-2-b"/>
    <path fill="#FF14BA" stroke="#000" stroke-width="7" d="M12,6.5 L172,6.5 C175.037566,6.5 177.5,8.96243388 177.5,12 L177.5,40 C177.5,44.6944204 173.69442,48.5 169,48.5 L15,48.5 C10.3055796,48.5 6.5,44.6944204 6.5,40 L6.5,12 C6.5,8.96243388 8.96243388,6.5 12,6.5 Z"/>
    <path fill="#FF13A9" fill-rule="nonzero" d="M215.380033,44.5602901 L238.370833,48.662148 C240.273781,49.0016585 241.541197,50.8195298 241.201686,52.7224772 C240.862175,54.6254245 239.044304,55.8928404 237.141357,55.5533298 L200.99699,49.1047046 C198.31013,48.6253337 197.181431,45.391763 198.986355,43.3445052 L223.266676,15.8042437 C224.544999,14.3542897 226.756704,14.2151553 228.206658,15.4934782 C229.656612,16.7718011 229.795746,18.9835065 228.517424,20.4334605 L213.073135,37.9513399 L230.473771,31.877533 L308.346551,4.69552489 C310.171562,4.05849268 312.167443,5.02153993 312.804475,6.84655114 C313.441507,8.67156235 312.47846,10.6674429 310.653449,11.3044751 L232.780669,38.4864832 L215.380033,44.5602901 Z"/>
  </g>
</svg>
