<svg xmlns="http://www.w3.org/2000/svg" xmlns:xlink="http://www.w3.org/1999/xlink" width="322" height="186" viewBox="0 0 322 186">
  <defs>
    <path id="a-in-box-a" d="M84.4262695,94.1210938 L79.4042969,80.9643555 L74.5483398,94.1210938 L84.4262695,94.1210938 Z M79.3212891,64.4873047 C81.8945441,64.4873047 83.7068632,66.7008242 84.7583008,71.1279297 C97.3202125,103.860841 103.670247,120.697424 103.808594,121.638184 L103.808594,122.177734 C103.808594,124.418957 102.452813,125.774737 99.7412109,126.245117 L99.4506836,126.245117 C96.9604368,126.245117 95.2587936,124.183777 94.3457031,120.061035 L87.6635742,102.712402 L71.1450195,102.712402 L62.7612305,124.833984 C61.5161071,125.774744 60.4370163,126.245117 59.5239258,126.245117 L59.0673828,126.245117 C56.3557807,125.747068 55,124.349784 55,122.053223 L55,121.679688 L60.3955078,107.070312 C69.6647599,82.9425877 74.7143513,69.481622 75.5444336,66.6870117 C76.8725652,65.220533 78.1315045,64.4873047 79.3212891,64.4873047 Z"/>
  </defs>
  <g fill="none" fill-rule="evenodd" transform="translate(10 7)">
    <path fill="#FF6FCA" stroke="#000" stroke-width="7" d="M10,25.5 L154,25.5 C158.69442,25.5 162.5,29.3055796 162.5,34 L162.5,158 C162.5,162.69442 158.69442,166.5 154,166.5 L10,166.5 C5.30557963,166.5 1.5,162.69442 1.5,158 L1.5,34 C1.5,29.3055796 5.30557963,25.5 10,25.5 Z"/>
    <path fill="#FF14BA" stroke="#000" stroke-width="7" d="M2,-0.5 L162,-0.5 C165.037566,-0.5 167.5,1.96243388 167.5,5 L167.5,33 C167.5,37.6944204 163.69442,41.5 159,41.5 L5,41.5 C0.305579626,41.5 -3.5,37.6944204 -3.5,33 L-3.5,5 C-3.5,1.96243388 -1.03756612,-0.5 2,-0.5 Z"/>
    <use fill="#545454" xlink:href="#a-in-box-a"/>
    <use fill="#FFF" xlink:href="#a-in-box-a"/>
    <path fill="#FF13A9" fill-rule="nonzero" d="M205.380033,37.5602901 L228.370833,41.662148 C230.273781,42.0016585 231.541197,43.8195298 231.201686,45.7224772 C230.862175,47.6254245 229.044304,48.8928404 227.141357,48.5533298 L190.99699,42.1047046 C188.31013,41.6253337 187.181431,38.391763 188.986355,36.3445052 L213.266676,8.8042437 C214.544999,7.35428975 216.756704,7.2151553 218.206658,8.49347823 C219.656612,9.77180115 219.795746,11.9835065 218.517424,13.4334605 L203.073135,30.9513399 L220.473771,24.877533 L298.346551,-2.30447511 C300.171562,-2.94150732 302.167443,-1.97846007 302.804475,-0.153448858 C303.441507,1.67156235 302.47846,3.66744289 300.653449,4.30447511 L222.780669,31.4864832 L205.380033,37.5602901 Z"/>
  </g>
</svg>
