<svg xmlns="http://www.w3.org/2000/svg" width="420" height="186" viewBox="0 0 420 186">
  <g fill="none" fill-rule="evenodd">
    <path fill="#FF5AC3" stroke="#000" stroke-width="7" d="M250,32.5 L394,32.5 C398.69442,32.5 402.5,36.3055796 402.5,41 L402.5,165 C402.5,169.69442 398.69442,173.5 394,173.5 L250,173.5 C245.30558,173.5 241.5,169.69442 241.5,165 L241.5,41 C241.5,36.3055796 245.30558,32.5 250,32.5 Z" transform="matrix(-1 0 0 1 644 0)"/>
    <path fill="#FF14BA" d="M247,111 L397,111 C398.104569,111 399,111.895431 399,113 L399,165 C399,167.761424 396.761424,170 394,170 L250,170 C247.238576,170 245,167.761424 245,165 L245,113 C245,111.895431 245.895431,111 247,111 Z" transform="matrix(-1 0 0 1 644 0)"/>
    <path fill="#FFF" d="M319.321289,71.4873047 C321.894544,71.4873047 323.706863,73.7008242 324.758301,78.1279297 C337.320213,110.860841 343.670247,127.697424 343.808594,128.638184 L343.808594,129.177734 C343.808594,131.418957 342.452813,132.774737 339.741211,133.245117 L339.450684,133.245117 C336.960437,133.245117 335.258794,131.183777 334.345703,127.061035 L327.663574,109.712402 L311.14502,109.712402 L302.76123,131.833984 C301.516107,132.774744 300.437016,133.245117 299.523926,133.245117 L299.067383,133.245117 C296.355781,132.747068 295,131.349784 295,129.053223 L295,128.679688 L300.395508,114.070312 C309.66476,89.9425877 314.714351,76.481622 315.544434,73.6870117 C316.872565,72.220533 318.131504,71.4873047 319.321289,71.4873047 Z" transform="matrix(-1 0 0 1 638.809 0)"/>
    <polygon fill="#FF6FCA" points="324.426 101.121 319.404 87.964 314.548 101.121" transform="matrix(-1 0 0 1 638.975 0)"/>
    <path fill="#FF14BA" stroke="#000" stroke-width="7" d="M242,6.5 L402,6.5 C405.037566,6.5 407.5,8.96243388 407.5,12 L407.5,40 C407.5,44.6944204 403.69442,48.5 399,48.5 L245,48.5 C240.30558,48.5 236.5,44.6944204 236.5,40 L236.5,12 C236.5,8.96243388 238.962434,6.5 242,6.5 Z" transform="matrix(-1 0 0 1 644 0)"/>
    <path fill="#FF13A9" fill-rule="nonzero" stroke="#000" stroke-linecap="round" stroke-linejoin="round" stroke-width="4" d="M69.6224248,51.546995 L79.8381216,47.9812341 L199.687438,7.8072534 C202.555312,6.80620278 205.691696,8.31956275 206.692747,11.1874375 C207.693797,14.0553123 206.180437,17.191696 203.289099,18.200774 L83.4397826,58.3747547 L73.2476356,61.9323909 L88.7221123,64.6932389 C91.7124581,65.2267555 93.7041117,68.0834104 93.1705951,71.0737562 C92.6370785,74.064102 89.7804236,76.0557555 86.7900778,75.5222389 L50.6457113,69.0736137 C46.4235023,68.3203167 44.6498321,63.2389912 47.486141,60.0218719 L71.7664621,32.4816103 C73.7752553,30.2031113 77.2507924,29.9844714 79.5292914,31.9932646 C81.8077905,34.0020577 82.0264303,37.4775948 80.0176372,39.7560939 L69.6224248,51.546995 Z" transform="matrix(-1 0 0 1 253.11 0)"/>
  </g>
</svg>
