<svg xmlns="http://www.w3.org/2000/svg" width="426" height="428" viewBox="0 0 426 428">
  <g fill="none" fill-rule="evenodd" transform="matrix(-1 0 0 1 415 14)">
    <circle cx="200" cy="200" r="200" fill="#FFF"/>
    <circle cx="200" cy="200" r="204.5" stroke="#000" stroke-width="9"/>
    <path fill="#AE6707" stroke="#212121" stroke-linejoin="round" stroke-width="3" d="M120,330.498047 C120,347.106379 174.544694,303.865234 199.493912,303.865234 C234.831433,303.865234 275.626896,336.608332 276,320 C277.991883,231.333333 279.15652,197 279.493912,217 L120,222.08699 C120,275.257991 120,311.395009 120,330.498047 Z"/>
    <path fill="#7D1EC5" stroke="#212121" stroke-width="3" d="M315.5827,360.538175 C290.249865,324.52901 247.37268,300 200,300 C152.916486,300 111.261581,323.242642 85.8830454,358.880167 C77.6132512,370.492933 140.743769,400.020471 202.851707,400 C243.04605,399.986752 280.623047,386.83281 315.5827,360.538175 Z"/>
    <circle cx="200" cy="200" r="200" stroke="#13F5FF" stroke-width="7"/>
    <path fill="#FDD8A0" stroke="#212121" stroke-linejoin="round" stroke-width="3" d="M180.289063,300.460568 C180.144857,313.486856 186.715169,320 200,320 C213.284831,320 220.260742,313.486067 220.927734,300.4582 C220.927734,300.459779 220.927734,291.307046 220.927734,273 L180.289063,272 C180.289063,291.666667 180.289063,301.153523 180.289063,300.460568 Z"/>
    <path fill="#FFF" stroke="#212121" stroke-width="3" d="M120,210.5 C120,246.363281 150.525391,280 200,280 C249.474609,280 280,254 280,210.5"/>
    <path fill="#FFD088" d="M280,145.842285 L280,178 C289.333333,180.638672 294,186.472005 294,195.5 C294,204.527995 289,210.027995 279,212 C276,254.333333 249.666667,276.666667 200,279 L200,133 C204.967448,132.333333 218.634115,132 241,132 C263.365885,132 276.365885,136.614095 280,145.842285 Z"/>
    <path fill="#FFCA78" d="M186,145.842285 L186,178 C195.333333,180.638672 200,186.472005 200,195.5 C200,209.041992 193,209.041992 185,211 C185,229 171.5,276 106,279 L106,132 C118.967448,122.561523 136.634115,117.842285 159,117.842285 C181.365885,117.842285 190.365885,127.175618 186,145.842285 Z" transform="matrix(-1 0 0 1 306 0)"/>
    <path fill="#FFF" stroke="#212121" stroke-linejoin="round" stroke-width="3" d="M280,179.458008 L280,144.842285"/>
    <path fill="#FFF" stroke="#212121" stroke-width="3" d="M120,133 L120,179.53125 L120,133 Z"/>
    <path stroke="#212121" stroke-linejoin="bevel" stroke-width="3" d="M105,212 C113.284271,212 120,203.284271 120,195 C120,186.715729 113.284271,178 105,178" transform="matrix(-1 0 0 1 225 0)"/>
    <path stroke="#212121" stroke-linejoin="bevel" stroke-width="3" d="M279,212 C287.284271,212 294,203.284271 294,195 C294,186.715729 287.284271,178 279,178"/>
    <path fill="#AE6707" stroke="#212121" stroke-linejoin="round" stroke-width="3" d="M120,133 C147.666667,148.333333 174.164637,150.166667 199.493912,138.5 C224.823187,126.833333 251.65855,128.82487 280,144.474609 C280,146.974609 278.987825,80 199.493912,80 C146.497971,80 120,97.6666667 120,133 Z"/>
    <path fill="#212121" stroke="#212121" stroke-linejoin="round" stroke-width="3" d="M224,178 C225.656854,178 227,176.656854 227,175 C227,173.343146 225.656854,172 224,172 C222.343146,172 221,173.343146 221,175 C221,176.656854 222.343146,178 224,178 Z"/>
    <circle cx="178" cy="175" r="3" fill="#212121" stroke="#212121" stroke-width="3"/>
    <path fill="#212121" stroke="#212121" stroke-width="3" d="M201.851935,186.998458 C200.998459,187.018257 199.8125,188.332142 199.8125,189.16596 C199.8125,189.999778 200.882372,191 201.851935,191 C202.821498,191 203.744141,189.773654 203.744141,188.999229 C203.744141,188.224804 202.70541,186.97866 201.851935,186.998458 Z"/>
    <path stroke="#212121" stroke-width="3" d="M201,221 C205.970563,221 210,217.418278 210,213 C206,214.333333 203,215 201,215 C199,215 196,214.333333 192,213 C192,217.418278 196.029437,221 201,221 Z"/>
    <path stroke="#979797"/>
  </g>
</svg>
