<svg xmlns="http://www.w3.org/2000/svg" xmlns:xlink="http://www.w3.org/1999/xlink" width="250" height="250" viewBox="0 0 250 250">
  <defs>
    <path id="get-tex-coin-a" d="M111.16,77.36 L111.16,93.96 L96.2,93.96 C92.6,93.96 90.64,92.6 90.64,88.92 L90.64,67.24 C90.64,63.44 92.6,62 96.24,62 L108.36,62 L108.36,69.32 L98.88,69.36 L98.88,86.64 L102.92,86.64 L102.92,77.36 L111.16,77.36 Z M132.56,86.64 L132.56,93.96 L114,93.96 L114,62 L132.56,62 L132.56,69.32 L122.24,69.32 L122.24,74.2 L132.56,74.2 L132.56,81.48 L122.24,81.48 L122.24,86.64 L132.56,86.64 Z M156.36,62 L156.36,69.32 L149.52,69.32 L149.52,93.96 L141.28,93.96 L141.28,69.32 L134.44,69.32 L134.44,62 L156.36,62 Z"/>
    <filter id="get-tex-coin-b" width="106.1%" height="112.5%" x="-3%" y="-6.3%" filterUnits="objectBoundingBox">
      <feGaussianBlur in="SourceAlpha" result="shadowBlurInner1" stdDeviation="1.5"/>
      <feOffset dy="1" in="shadowBlurInner1" result="shadowOffsetInner1"/>
      <feComposite in="shadowOffsetInner1" in2="SourceAlpha" k2="-1" k3="1" operator="arithmetic" result="shadowInnerInner1"/>
      <feColorMatrix in="shadowInnerInner1" values="0 0 0 0 0.739875019   0 0 0 0 0.0611469224   0 0 0 0 0.879000783  0 0 0 1 0"/>
    </filter>
    <path id="get-tex-coin-c" d="M95.55,102 L95.55,118.47 L80.16,118.47 L80.16,173.91 L61.62,173.91 L61.62,118.47 L46.23,118.47 L46.23,102 L95.55,102 Z M142.44,157.44 L142.44,173.91 L100.68,173.91 L100.68,102 L142.44,102 L142.44,118.47 L119.22,118.47 L119.22,129.45 L142.44,129.45 L142.44,145.83 L119.22,145.83 L119.22,157.44 L142.44,157.44 Z M197.7,147.99 L197.7,173.91 L179.25,173.91 L179.25,145.83 L167.37,145.83 L167.37,173.91 L148.83,173.91 L148.83,147.63 C148.83,142.23 152.61,138.45 156.3,137.82 L156.3,137.64 C152.79,136.47 148.83,132.6 148.83,127.2 L148.83,102 L167.37,102 L167.37,129.45 L179.25,129.45 L179.25,102 L197.7,102 L197.7,127.29 C197.7,132.69 194.1,136.38 190.23,137.55 L190.23,137.82 C194.1,138.36 197.7,142.59 197.7,147.99 Z"/>
    <filter id="get-tex-coin-d" width="102%" height="104.2%" x="-1%" y="-2.1%" filterUnits="objectBoundingBox">
      <feGaussianBlur in="SourceAlpha" result="shadowBlurInner1" stdDeviation="1"/>
      <feOffset dy="1" in="shadowBlurInner1" result="shadowOffsetInner1"/>
      <feComposite in="shadowOffsetInner1" in2="SourceAlpha" k2="-1" k3="1" operator="arithmetic" result="shadowInnerInner1"/>
      <feColorMatrix in="shadowInnerInner1" values="0 0 0 0 0.741176471   0 0 0 0 0.062745098   0 0 0 0 0.878431373  0 0 0 0.5 0"/>
    </filter>
  </defs>
  <g fill="none" fill-rule="evenodd">
    <polygon fill="#FFF" points="125 9 193.183 31.154 235.323 89.154 235.323 160.846 193.183 218.846 125 241 56.817 218.846 14.677 160.846 14.677 89.154 56.817 31.154" transform="rotate(90 125 125)"/>
    <polygon fill="#FBFBFB" points="18.5 125 231.5 125 211 187.5 158 226.5 92 226.5 38.5 187.5"/>
    <use fill="#4A4A4A" xlink:href="#get-tex-coin-a"/>
    <use fill="#000" filter="url(#get-tex-coin-b)" xlink:href="#get-tex-coin-a"/>
    <g>
      <use fill="#1787CE" xlink:href="#get-tex-coin-c"/>
      <use fill="#000" filter="url(#get-tex-coin-d)" xlink:href="#get-tex-coin-c"/>
    </g>
  </g>
</svg>
