<svg xmlns="http://www.w3.org/2000/svg" width="426" height="428" viewBox="0 0 426 428">
  <g fill="none" fill-rule="evenodd" transform="matrix(-1 0 0 1 415 14)">
    <circle cx="200" cy="200" r="200" fill="#FFF"/>
    <circle cx="200" cy="200" r="204.5" stroke="#000" stroke-width="9"/>
    <path fill="#72E0FF" stroke="#212121" stroke-width="3" d="M315.5827,360.538175 C290.249865,324.52901 247.37268,300 200,300 C152.916486,300 111.261581,323.242642 85.8830454,358.880167 C77.6132512,370.492933 140.743769,400.020471 202.851707,400 C243.04605,399.986752 280.623047,386.83281 315.5827,360.538175 Z"/>
    <circle cx="200" cy="200" r="200" stroke="#FF13AB" stroke-width="7"/>
    <path fill="#FDD8A0" stroke="#212121" stroke-linejoin="round" stroke-width="3" d="M180.289063,300.460568 C180.144857,313.486856 186.715169,320 200,320 C213.284831,320 220.260742,313.486067 220.927734,300.4582 C220.927734,300.459779 220.927734,291.307046 220.927734,273 L180.289063,272 C180.289063,291.666667 180.289063,301.153523 180.289063,300.460568 Z"/>
    <path fill="#FFF" stroke="#212121" stroke-width="3" d="M120,210.5 C120,246.363281 150.525391,280 200,280 C249.474609,280 280,254 280,210.5"/>
    <path fill="#FFDEAC" d="M280,145.842285 L280,178 C289.333333,180.638672 294,186.472005 294,195.5 C294,204.527995 289,210.027995 279,212 C276,254.333333 249.666667,276.666667 200,279 L200,133 C204.967448,140.22819 218.634115,143.842285 241,143.842285 C263.365885,143.842285 276.365885,144.508952 280,145.842285 Z"/>
    <path fill="#FFE3B8" d="M186,145.842285 L186,178 C195.333333,180.638672 200,186.472005 200,195.5 C200,209.041992 193,209.041992 185,211 C185,229 171.5,276 106,279 L106,132 C118.967448,122.561523 136.634115,117.842285 159,117.842285 C181.365885,117.842285 190.365885,127.175618 186,145.842285 Z" transform="matrix(-1 0 0 1 306 0)"/>
    <path fill="#FFF" stroke="#212121" stroke-linejoin="round" stroke-width="3" d="M280,179.458008 L280,144.842285"/>
    <path fill="#FFF" stroke="#212121" stroke-width="3" d="M120,156 L120,179.53125 L120,156 Z"/>
    <path stroke="#212121" stroke-linejoin="bevel" stroke-width="3" d="M105,212 C113.284271,212 120,203.284271 120,195 C120,186.715729 113.284271,178 105,178" transform="matrix(-1 0 0 1 225 0)"/>
    <path stroke="#212121" stroke-linejoin="bevel" stroke-width="3" d="M279,212 C287.284271,212 294,203.284271 294,195 C294,186.715729 287.284271,178 279,178"/>
    <path fill="#EF9B34" stroke="#212121" stroke-linejoin="round" stroke-width="3" d="M120,160 C120,133.333333 128.316406,120 144.949219,120 C180.28674,120 180.28674,144.474609 240.21875,144.474609 C266.739583,144.474609 280,144.474609 280,144.474609 C280,146.974609 278.987825,80 199.493912,80 C146.497971,80 120,106.666667 120,160 Z"/>
    <path fill="#212121" stroke="#212121" stroke-linejoin="round" stroke-width="3" d="M218,178 C219.656854,178 221,176.656854 221,175 C221,173.343146 219.656854,172 218,172 C216.343146,172 215,173.343146 215,175 C215,176.656854 216.343146,178 218,178 Z"/>
    <circle cx="183" cy="175" r="3" fill="#212121" stroke="#212121" stroke-width="3"/>
    <path stroke="#212121" stroke-width="3" d="M199.926829,191.998691 C196.183975,192.084748 192.5,193.725373 192.5,196.332733 C192.5,198.940094 196.036585,200 199.926829,200 C203.817073,200 207,198.036625 207,195.999346 C207,193.962066 203.669684,191.912635 199.926829,191.998691 Z"/>
    <path fill="#212121" stroke="#212121" stroke-linejoin="round" stroke-width="3" d="M200,224 C206.627417,224 212,217.731986 212,210 C210.666667,215.833333 206.666667,218.75 200,218.75 C193.78418,218.75 189.78418,215.833333 188,210 C188,217.731986 193.372583,224 200,224 Z"/>
    <path stroke="#979797"/>
  </g>
</svg>
