<svg xmlns="http://www.w3.org/2000/svg" width="446" height="419" viewBox="0 0 446 419">
  <g fill="none" fill-rule="evenodd" transform="translate(20 9)">
    <path fill="#EEE" stroke="#000" stroke-width="7" d="M42.9312321,46.0060018 L-8.70837717,-3.5 L338,-3.5 C382.735065,-3.5 419,32.7649353 419,77.5 C419,122.235065 382.735065,158.5 338,158.5 L143.931232,158.5 C88.1504724,158.5 42.9312321,113.28076 42.9312321,57.5 L42.9312321,46.0060018 Z" transform="rotate(180 207.75 77.5)"/>
    <path fill="#FFF" d="M125.385409,80 C190.689882,80 255.994355,80 321.298828,80 C386.197266,80 410,139.5 410,155 C227.712512,155 108.045845,155 51,155 C48.2513021,139 46.7283794,128.837607 46.4312321,124.512821 L-9.09494702e-13,80" transform="rotate(180 205 117.5)"/>
    <path stroke="#13F5FF" stroke-width="7" d="M8.70837717,3.5 L49.9312321,43.0196392 L49.9312321,57.5 C49.9312321,109.414766 92.0164656,151.5 143.931232,151.5 L338,151.5 C378.869071,151.5 412,118.369071 412,77.5 C412,36.6309285 378.869071,3.5 338,3.5 L8.70837717,3.5 Z" transform="rotate(180 207.75 77.5)"/>
    <path fill="#545454" d="M187.202637,55.1435547 C188.724129,52.6386594 189.484863,49.9297021 189.484863,47.0166016 C189.484863,41.5800509 186.989283,37.2661292 181.998047,34.074707 C179.567371,32.6830985 177.053236,31.9873047 174.455566,31.9873047 C169.482885,31.9873047 165.354509,34.1581814 162.070312,38.5 C160.289054,41.0605597 159.398438,43.9736165 159.398438,47.2392578 C159.398438,52.0449459 161.532205,56.0991046 165.799805,59.4018555 C168.434583,61.1831144 171.245591,62.0737305 174.23291,62.0737305 L174.761719,62.0737305 C178.045915,62.0737305 180.82909,61.1645599 183.111328,59.3461914 C180.643542,56.6557483 179.196291,54.9765658 178.769531,54.3085938 L178.769531,53.2509766 C179.103517,51.4882724 180.012688,50.6069336 181.49707,50.6069336 L181.803223,50.6069336 C182.768071,50.6069336 184.131827,51.6830947 185.894531,53.8354492 L187.202637,55.1435547 Z M191.154785,59.4018555 C193.956557,62.1665177 195.357422,63.9663044 195.357422,64.8012695 L195.357422,64.9960938 C195.357422,66.4804762 194.401865,67.4267558 192.490723,67.8349609 C191.358881,67.8349609 189.80958,66.6289183 187.842773,64.2167969 C187.32324,63.8271465 187.054199,63.6323242 187.035645,63.6323242 C183.436017,66.434096 179.30764,67.8349609 174.650391,67.8349609 L174.23291,67.8349609 C167.08932,67.8349609 161.253929,64.5137051 156.726562,57.8710938 C154.666982,54.4941237 153.637207,50.8481641 153.637207,46.9331055 C153.637207,40.2904941 156.550264,34.705589 162.376465,30.1782227 C166.19875,27.5434439 170.225077,26.2260742 174.455566,26.2260742 C181.469273,26.2260742 187.341773,29.4731121 192.073242,35.9672852 C194.188487,39.6411317 195.246094,43.3613093 195.246094,47.1279297 C195.246094,51.5254126 193.882338,55.6166803 191.154785,59.4018555 Z M204.736816,67.7792969 C201.45262,67.2226535 199.810547,65.6084118 199.810547,62.9365234 L199.810547,62.8251953 C199.810547,60.9326077 200.942371,59.5317428 203.206055,58.6225586 C203.595705,58.418456 204.115231,58.3164062 204.764648,58.3164062 L205.293457,58.3164062 C208.317886,58.9472688 209.830078,60.3759654 209.830078,62.6025391 L209.85791,63.465332 L210.052734,64.7734375 L210.052734,65.2744141 C210.052734,69.0410345 208.206561,71.8427643 204.51416,73.6796875 C203.716305,74.1992213 203.020511,74.4589844 202.426758,74.4589844 C201.183588,74.4589844 200.422853,73.6425863 200.144531,72.0097656 C200.144531,70.6367119 201.100088,69.7646503 203.01123,69.3935547 C203.567874,69.0781234 204.143063,68.5400429 204.736816,67.7792969 Z M109.439941,94.3730469 C111.276865,94.8369164 112.195312,95.708978 112.195312,96.9892578 L112.195312,97.6015625 C112.195312,99.0673901 111.202647,99.9394517 109.217285,100.217773 C107.788567,100.217773 106.851565,99.2436621 106.40625,97.2954102 C106.7959,95.3471582 107.807121,94.3730469 109.439941,94.3730469 Z M109.439941,101.498047 C111.276865,101.961916 112.195312,102.833978 112.195312,104.114258 L112.195312,129.107422 C112.195312,130.610359 111.267587,131.51953 109.412109,131.834961 L109.245117,131.834961 C107.723625,131.834961 106.786623,130.888681 106.434082,128.996094 L106.434082,104.670898 C106.656739,102.555653 107.658682,101.498047 109.439941,101.498047 Z M135.156738,121.898926 C135.138184,121.52783 134.757816,121.305176 134.015625,121.230957 C124.626906,119.134267 119.617191,117.798343 118.986328,117.223145 C117.075186,115.775872 116.119629,113.985362 116.119629,111.851562 C116.119629,108.957017 118.14207,106.21095 122.187012,103.613281 C124.413585,102.44433 126.612294,101.859863 128.783203,101.859863 C133.867213,101.859863 137.884263,104.207008 140.834473,108.901367 L140.945801,109.931152 L140.945801,110.098145 C140.945801,111.675301 139.999521,112.603026 138.106934,112.881348 C136.845209,112.881348 135.676275,111.990732 134.600098,110.209473 C132.911613,108.558097 130.972667,107.732422 128.783203,107.732422 C125.925767,107.732422 123.689949,109.068346 122.075684,111.740234 L122.02002,112.018555 C122.02002,112.38965 122.817863,112.640136 124.413574,112.77002 C132.39213,114.699717 136.798824,115.822264 137.633789,116.137695 C139.916027,117.640633 141.057129,119.542469 141.057129,121.843262 L141.057129,121.926758 C141.057129,125.099625 138.812034,127.966296 134.321777,130.526855 C132.373525,131.39893 130.323253,131.834961 128.170898,131.834961 C123.717751,131.834961 119.960465,129.756857 116.898926,125.600586 C116.509275,125.043943 116.314453,124.505862 116.314453,123.986328 L116.314453,123.374023 C116.314453,121.871086 117.334951,121.008302 119.375977,120.785645 C120.35938,120.785645 121.519036,121.741201 122.85498,123.652344 C124.487801,125.173836 126.398915,125.93457 128.588379,125.93457 C131.186048,125.93457 133.33837,124.71925 135.04541,122.288574 L135.156738,121.898926 Z M162.515625,94.3730469 C164.352548,94.8369164 165.270996,95.708978 165.270996,96.9892578 L165.270996,97.6015625 C165.270996,99.0673901 164.27833,99.9394517 162.292969,100.217773 C160.864251,100.217773 159.927248,99.2436621 159.481934,97.2954102 C159.871584,95.3471582 160.882804,94.3730469 162.515625,94.3730469 Z M162.515625,101.498047 C164.352548,101.961916 165.270996,102.833978 165.270996,104.114258 L165.270996,129.107422 C165.270996,130.610359 164.343271,131.51953 162.487793,131.834961 L162.320801,131.834961 C160.799309,131.834961 159.862306,130.888681 159.509766,128.996094 L159.509766,104.670898 C159.732423,102.555653 160.734366,101.498047 162.515625,101.498047 Z M176.626465,91.4785156 L177.099609,91.4785156 C178.825204,91.8496112 179.687988,92.6752866 179.687988,93.9555664 L179.687988,102.305176 L183,102.305176 L183.918457,102.193848 C185.347175,102.193848 186.284177,103.121573 186.729492,104.977051 C186.729492,106.368659 185.913094,107.361325 184.280273,107.955078 L182.610352,107.84375 L179.687988,107.84375 L179.687988,122.010254 C179.687988,124.236828 180.318841,125.563474 181.580566,125.990234 L183.779297,126.185059 L184.892578,126.185059 C186.247077,126.185059 187.100584,127.084952 187.453125,128.884766 L187.453125,129.135254 C187.137694,130.935068 186.209969,131.834961 184.669922,131.834961 L182.526855,131.834961 C178.927228,131.834961 176.25538,129.886738 174.51123,125.990234 C174.195799,125.006831 174.038086,123.884284 174.038086,122.622559 L174.038086,107.84375 L172.869141,107.84375 L171.087891,107.955078 C169.45507,107.37988 168.638672,106.396491 168.638672,105.004883 C168.954103,103.205069 169.566402,102.305176 170.475586,102.305176 L170.475586,102.110352 L172.395996,102.305176 L174.038086,102.305176 L174.038086,94.512207 C174.260743,92.489736 175.123528,91.4785156 176.626465,91.4785156 Z M249.824707,90.2817383 C253.40578,90.2817383 256.64354,91.8495937 259.538086,94.9853516 C261.560557,97.5459112 262.571777,100.329087 262.571777,103.334961 C262.571777,107.101581 260.87404,110.459946 257.478516,113.410156 C254.472641,115.061532 252.969727,117.455062 252.969727,120.59082 C252.691405,122.501963 251.689462,123.45752 249.963867,123.45752 C248.126944,123.049314 247.208496,122.177253 247.208496,120.841309 L247.208496,120.006348 C247.208496,115.311988 249.629859,111.471206 254.472656,108.483887 C256.012703,106.962395 256.782715,105.144054 256.782715,103.028809 C256.782715,100.375475 255.372573,98.2509845 252.552246,96.6552734 C251.290521,96.2656231 250.279301,96.0708008 249.518555,96.0708008 C246.753892,96.0708008 244.592293,97.5366064 243.033691,100.468262 L242.282227,104.14209 C241.447261,105.218267 240.565923,105.756348 239.638184,105.756348 C237.727041,105.348142 236.771484,104.401863 236.771484,102.91748 C236.771484,98.8539836 238.766093,95.319351 242.755371,92.3134766 C245.186047,90.9589776 247.542469,90.2817383 249.824707,90.2817383 Z M249.629883,124.654297 L250.158691,124.654297 C251.791512,124.654297 252.941891,125.65624 253.609863,127.660156 L253.609863,128.606445 C253.183103,130.870129 251.893565,132.001953 249.741211,132.001953 C247.421863,131.500974 246.262207,130.313486 246.262207,128.439453 C246.262207,126.361318 247.384754,125.099612 249.629883,124.654297 Z"/>
    <path fill="#FF14BA" d="M215.318848,90.4208984 C217.044442,90.4208984 218.259762,91.9052586 218.964844,94.8740234 C227.388714,116.824329 231.646972,128.114743 231.739746,128.745605 L231.739746,129.107422 C231.739746,130.610359 230.830575,131.51953 229.012207,131.834961 L228.817383,131.834961 C227.147453,131.834961 226.006351,130.452651 225.394043,127.687988 L220.913086,116.054199 L209.835938,116.054199 L204.213867,130.888672 C203.378902,131.519534 202.655276,131.834961 202.042969,131.834961 L201.736816,131.834961 C199.918448,131.500975 199.009277,130.563973 199.009277,129.023926 L199.009277,128.773438 L202.627441,118.976562 C208.843293,102.796794 212.229489,93.7700289 212.786133,91.8959961 C213.676762,90.9125927 214.520992,90.4208984 215.318848,90.4208984 Z"/>
    <polygon fill="#FFF" points="218.742 110.293 215.375 101.47 212.118 110.293"/>
  </g>
</svg>
