<svg xmlns="http://www.w3.org/2000/svg" width="446" height="173" viewBox="0 0 446 173">
  <g fill="none" fill-rule="evenodd" transform="translate(20 9)">
    <path fill="#EEE" stroke="#000" stroke-width="7" d="M42.9312321,46.0060018 L-8.70837717,-3.5 L338,-3.5 C382.735065,-3.5 419,32.7649353 419,77.5 C419,122.235065 382.735065,158.5 338,158.5 L143.931232,158.5 C88.1504724,158.5 42.9312321,113.28076 42.9312321,57.5 L42.9312321,46.0060018 Z" transform="matrix(1 0 0 -1 0 155)"/>
    <path fill="#FFF" d="M125.385409,71.5 C190.689882,71.5 255.994355,71.5 321.298828,71.5 C386.197266,71.5 411.613281,139.5 411.613281,155 L338,155 C205.46121,155 110.668892,155 53.6230469,155 C50.874349,139 48.4770774,126.004274 46.4312321,116.012821 L-8.52651283e-13,71.5" transform="matrix(1 0 0 -1 0 226.5)"/>
    <path stroke="#FF13A9" stroke-width="7" d="M8.70837717,3.5 L49.9312321,43.0196392 L49.9312321,57.5 C49.9312321,109.414766 92.0164656,151.5 143.931232,151.5 L338,151.5 C378.869071,151.5 412,118.369071 412,77.5 C412,36.6309285 378.869071,3.5 338,3.5 L8.70837717,3.5 Z" transform="matrix(1 0 0 -1 0 155)"/>
    <path fill="#545454" d="M234.998047,85.2792969 C237.400403,81.324199 238.601562,77.046898 238.601562,72.4472656 C238.601562,63.8632383 234.661172,57.051783 226.780273,52.0126953 C222.942364,49.8154187 218.972677,48.7167969 214.871094,48.7167969 C207.019492,48.7167969 200.501002,52.144497 195.31543,59 C192.502916,63.042989 191.09668,67.6425523 191.09668,72.7988281 C191.09668,80.3867567 194.465787,86.7880599 201.204102,92.0029297 C205.364279,94.8154438 209.802711,96.2216797 214.519531,96.2216797 L215.354492,96.2216797 C220.540065,96.2216797 224.934552,94.7861472 228.538086,91.9150391 C224.641582,87.6669709 222.356449,85.0156303 221.682617,83.9609375 L221.682617,82.2910156 C222.209964,79.5077986 223.645496,78.1162109 225.989258,78.1162109 L226.472656,78.1162109 C227.996101,78.1162109 230.1494,79.8154127 232.932617,83.2138672 L234.998047,85.2792969 Z M241.238281,92.0029297 C245.662131,96.3681859 247.874023,99.2099543 247.874023,100.52832 L247.874023,100.835938 C247.874023,103.179699 246.365249,104.673825 243.347656,105.318359 C241.560538,105.318359 239.114273,103.414082 236.008789,99.6054688 C235.188472,98.9902313 234.763672,98.6826172 234.734375,98.6826172 C229.050753,103.106467 222.532263,105.318359 215.178711,105.318359 L214.519531,105.318359 C203.240178,105.318359 194.026403,100.074271 186.87793,89.5859375 C183.62596,84.2538796 182,78.4971012 182,72.3154297 C182,61.827096 186.599563,53.0088248 195.798828,45.8603516 C201.834015,41.7001745 208.191373,39.6201172 214.871094,39.6201172 C225.945368,39.6201172 235.217736,44.747019 242.688477,55.0009766 C246.028337,60.8017868 247.698242,66.6757515 247.698242,72.6230469 C247.698242,79.566441 245.544943,86.0263373 241.238281,92.0029297 Z M261.013672,39.3125 L261.541016,39.3125 C264.001965,39.3125 265.510739,40.7187359 266.067383,43.53125 L266.067383,85.7626953 C265.364254,88.6631004 263.752942,90.1132812 261.233398,90.1132812 C258.06932,89.6445289 256.487305,88.1943481 256.487305,85.7626953 L256.487305,43.3554688 C257.043948,40.6601428 258.552722,39.3125 261.013672,39.3125 Z M260.618164,93.6289062 L261.057617,93.6289062 C264.895527,94.1855497 266.814453,95.9726412 266.814453,98.9902344 L266.814453,99.9570312 C266.814453,102.740248 265.027362,104.52734 261.453125,105.318359 L260.793945,105.318359 C257.747055,105.318359 255.842777,103.370137 255.081055,99.4736328 C255.872074,95.577129 257.717759,93.6289062 260.618164,93.6289062 Z"/>
  </g>
</svg>
