<svg xmlns="http://www.w3.org/2000/svg" width="446" height="173" viewBox="0 0 446 173">
  <defs>
    <linearGradient id="q-speech-bubble-a" x1="50%" x2="50%" y1="0%" y2="100%">
      <stop offset="0%" stop-color="#F8F8F8"/>
      <stop offset="49.885%" stop-color="#FFF"/>
      <stop offset="50.506%" stop-color="#F5F5F5"/>
      <stop offset="100%" stop-color="#F2F2F2"/>
    </linearGradient>
  </defs>
  <g fill="none" fill-rule="evenodd" transform="translate(10 9)">
    <path fill="url(#q-speech-bubble-a)" stroke="#000" stroke-width="7" d="M42.9312321,46.0060018 L-8.70837717,-3.5 L338,-3.5 C382.735065,-3.5 419,32.7649353 419,77.5 C419,122.235065 382.735065,158.5 338,158.5 L143.931232,158.5 C88.1504724,158.5 42.9312321,113.28076 42.9312321,57.5 L42.9312321,46.0060018 Z" transform="rotate(180 207.75 77.5)"/>
    <path fill="url(#q-speech-bubble-a)" stroke="#FF13A9" stroke-width="7" d="M8.70837717,3.5 L49.9312321,43.0196392 L49.9312321,57.5 C49.9312321,109.414766 92.0164656,151.5 143.931232,151.5 L338,151.5 C378.869071,151.5 412,118.369071 412,77.5 C412,36.6309285 378.869071,3.5 338,3.5 L8.70837717,3.5 Z" transform="rotate(180 207.75 77.5)"/>
    <path fill="#545454" d="M194.998047,85.2792969 C197.400403,81.324199 198.601562,77.046898 198.601562,72.4472656 C198.601562,63.8632383 194.661172,57.051783 186.780273,52.0126953 C182.942364,49.8154187 178.972677,48.7167969 174.871094,48.7167969 C167.019492,48.7167969 160.501002,52.144497 155.31543,59 C152.502916,63.042989 151.09668,67.6425523 151.09668,72.7988281 C151.09668,80.3867567 154.465787,86.7880599 161.204102,92.0029297 C165.364279,94.8154438 169.802711,96.2216797 174.519531,96.2216797 L175.354492,96.2216797 C180.540065,96.2216797 184.934552,94.7861472 188.538086,91.9150391 C184.641582,87.6669709 182.356449,85.0156303 181.682617,83.9609375 L181.682617,82.2910156 C182.209964,79.5077986 183.645496,78.1162109 185.989258,78.1162109 L186.472656,78.1162109 C187.996101,78.1162109 190.1494,79.8154127 192.932617,83.2138672 L194.998047,85.2792969 Z M201.238281,92.0029297 C205.662131,96.3681859 207.874023,99.2099543 207.874023,100.52832 L207.874023,100.835938 C207.874023,103.179699 206.365249,104.673825 203.347656,105.318359 C201.560538,105.318359 199.114273,103.414082 196.008789,99.6054688 C195.188472,98.9902313 194.763672,98.6826172 194.734375,98.6826172 C189.050753,103.106467 182.532263,105.318359 175.178711,105.318359 L174.519531,105.318359 C163.240178,105.318359 154.026403,100.074271 146.87793,89.5859375 C143.62596,84.2538796 142,78.4971012 142,72.3154297 C142,61.827096 146.599563,53.0088248 155.798828,45.8603516 C161.834015,41.7001745 168.191373,39.6201172 174.871094,39.6201172 C185.945368,39.6201172 195.217736,44.747019 202.688477,55.0009766 C206.028337,60.8017868 207.698242,66.6757515 207.698242,72.6230469 C207.698242,79.566441 205.544943,86.0263373 201.238281,92.0029297 Z M221.013672,39.3125 L221.541016,39.3125 C224.001965,39.3125 225.510739,40.7187359 226.067383,43.53125 L226.067383,85.7626953 C225.364254,88.6631004 223.752942,90.1132812 221.233398,90.1132812 C218.06932,89.6445289 216.487305,88.1943481 216.487305,85.7626953 L216.487305,43.3554688 C217.043948,40.6601428 218.552722,39.3125 221.013672,39.3125 Z M220.618164,93.6289062 L221.057617,93.6289062 C224.895527,94.1855497 226.814453,95.9726412 226.814453,98.9902344 L226.814453,99.9570312 C226.814453,102.740248 225.027362,104.52734 221.453125,105.318359 L220.793945,105.318359 C217.747055,105.318359 215.842777,103.370137 215.081055,99.4736328 C215.872074,95.577129 217.717759,93.6289062 220.618164,93.6289062 Z"/>
  </g>
</svg>
