<svg xmlns="http://www.w3.org/2000/svg" width="446" height="419" viewBox="0 0 446 419">
  <g fill="none" fill-rule="evenodd" transform="translate(14 9)">
    <path fill="#EEE" stroke="#000" stroke-width="7" d="M48.9312321,46.0060018 L-2.70837717,-3.5 L344,-3.5 C388.735065,-3.5 425,32.7649353 425,77.5 C425,122.235065 388.735065,158.5 344,158.5 L149.931232,158.5 C94.1504724,158.5 48.9312321,113.28076 48.9312321,57.5 L48.9312321,46.0060018 Z" transform="matrix(1 0 0 -1 0 155)"/>
    <path fill="#FFF" d="M131.385409,71.5 C196.689882,71.5 261.994355,71.5 327.298828,71.5 C392.197266,71.5 417.613281,139.5 417.613281,155 L344,155 C211.46121,155 116.668892,155 59.6230469,155 C56.874349,139 54.4770774,126.004274 52.4312321,116.012821 L6,71.5" transform="matrix(1 0 0 -1 0 226.5)"/>
    <path stroke="#FF13A9" stroke-width="7" d="M14.7083772,3.5 L55.9312321,43.0196392 L55.9312321,57.5 C55.9312321,109.414766 98.0164656,151.5 149.931232,151.5 L344,151.5 C384.869071,151.5 418,118.369071 418,77.5 C418,36.6309285 384.869071,3.5 344,3.5 L14.7083772,3.5 Z" transform="matrix(1 0 0 -1 0 155)"/>
    <path fill="#545454" d="M240.998047,85.2792969 C243.400403,81.324199 244.601562,77.046898 244.601562,72.4472656 C244.601562,63.8632383 240.661172,57.051783 232.780273,52.0126953 C228.942364,49.8154187 224.972677,48.7167969 220.871094,48.7167969 C213.019492,48.7167969 206.501002,52.144497 201.31543,59 C198.502916,63.042989 197.09668,67.6425523 197.09668,72.7988281 C197.09668,80.3867567 200.465787,86.7880599 207.204102,92.0029297 C211.364279,94.8154438 215.802711,96.2216797 220.519531,96.2216797 L221.354492,96.2216797 C226.540065,96.2216797 230.934552,94.7861472 234.538086,91.9150391 C230.641582,87.6669709 228.356449,85.0156303 227.682617,83.9609375 L227.682617,82.2910156 C228.209964,79.5077986 229.645496,78.1162109 231.989258,78.1162109 L232.472656,78.1162109 C233.996101,78.1162109 236.1494,79.8154127 238.932617,83.2138672 L240.998047,85.2792969 Z M247.238281,92.0029297 C251.662131,96.3681859 253.874023,99.2099543 253.874023,100.52832 L253.874023,100.835938 C253.874023,103.179699 252.365249,104.673825 249.347656,105.318359 C247.560538,105.318359 245.114273,103.414082 242.008789,99.6054688 C241.188472,98.9902313 240.763672,98.6826172 240.734375,98.6826172 C235.050753,103.106467 228.532263,105.318359 221.178711,105.318359 L220.519531,105.318359 C209.240178,105.318359 200.026403,100.074271 192.87793,89.5859375 C189.62596,84.2538796 188,78.4971012 188,72.3154297 C188,61.827096 192.599563,53.0088248 201.798828,45.8603516 C207.834015,41.7001745 214.191373,39.6201172 220.871094,39.6201172 C231.945368,39.6201172 241.217736,44.747019 248.688477,55.0009766 C252.028337,60.8017868 253.698242,66.6757515 253.698242,72.6230469 C253.698242,79.566441 251.544943,86.0263373 247.238281,92.0029297 Z M267.013672,39.3125 L267.541016,39.3125 C270.001965,39.3125 271.510739,40.7187359 272.067383,43.53125 L272.067383,85.7626953 C271.364254,88.6631004 269.752942,90.1132812 267.233398,90.1132812 C264.06932,89.6445289 262.487305,88.1943481 262.487305,85.7626953 L262.487305,43.3554688 C263.043948,40.6601428 264.552722,39.3125 267.013672,39.3125 Z M266.618164,93.6289062 L267.057617,93.6289062 C270.895527,94.1855497 272.814453,95.9726412 272.814453,98.9902344 L272.814453,99.9570312 C272.814453,102.740248 271.027362,104.52734 267.453125,105.318359 L266.793945,105.318359 C263.747055,105.318359 261.842777,103.370137 261.081055,99.4736328 C261.872074,95.577129 263.717759,93.6289062 266.618164,93.6289062 Z"/>
    <path fill="#FF5AC3" stroke="#000" stroke-width="7" d="M202,244.5 L346,244.5 C350.69442,244.5 354.5,248.30558 354.5,253 L354.5,377 C354.5,381.69442 350.69442,385.5 346,385.5 L202,385.5 C197.30558,385.5 193.5,381.69442 193.5,377 L193.5,253 C193.5,248.30558 197.30558,244.5 202,244.5 Z" transform="matrix(-1 0 0 1 548 0)"/>
    <path fill="#FF14BA" d="M199,323 L349,323 C350.104569,323 351,323.895431 351,325 L351,377 C351,379.761424 348.761424,382 346,382 L202,382 C199.238576,382 197,379.761424 197,377 L197,325 C197,323.895431 197.895431,323 199,323 Z" transform="matrix(-1 0 0 1 548 0)"/>
    <path fill="#FFF" d="M271.321289,283.487305 C273.894544,283.487305 275.706863,285.700824 276.758301,290.12793 C289.320213,322.860841 295.670247,339.697424 295.808594,340.638184 L295.808594,341.177734 C295.808594,343.418957 294.452813,344.774737 291.741211,345.245117 L291.450684,345.245117 C288.960437,345.245117 287.258794,343.183777 286.345703,339.061035 L279.663574,321.712402 L263.14502,321.712402 L254.76123,343.833984 C253.516107,344.774744 252.437016,345.245117 251.523926,345.245117 L251.067383,345.245117 C248.355781,344.747068 247,343.349784 247,341.053223 L247,340.679688 L252.395508,326.070312 C261.66476,301.942588 266.714351,288.481622 267.544434,285.687012 C268.872565,284.220533 270.131504,283.487305 271.321289,283.487305 Z" transform="matrix(-1 0 0 1 542.809 0)"/>
    <polygon fill="#FF6FCA" points="276.426 313.121 271.404 299.964 266.548 313.121" transform="matrix(-1 0 0 1 542.975 0)"/>
    <path fill="#FF14BA" stroke="#000" stroke-width="7" d="M194,218.5 L354,218.5 C357.037566,218.5 359.5,220.962434 359.5,224 L359.5,252 C359.5,256.69442 355.69442,260.5 351,260.5 L197,260.5 C192.30558,260.5 188.5,256.69442 188.5,252 L188.5,224 C188.5,220.962434 190.962434,218.5 194,218.5 Z" transform="matrix(-1 0 0 1 548 0)"/>
    <path fill="#FF13A9" fill-rule="nonzero" stroke="#000" stroke-linecap="round" stroke-linejoin="round" stroke-width="6" d="M24.8970054,261.344895 L31.5202967,259.033085 L151.357881,218.863118 C154.747187,217.680058 158.453823,219.468574 159.636882,222.857881 C160.819942,226.247187 159.031426,229.953823 155.606923,231.148923 L35.7693394,271.31889 L29.1814369,273.618441 L40.8977518,275.708784 C44.4317968,276.339304 46.7855693,279.715351 46.1550496,283.249396 C45.52453,286.783441 42.1484833,289.137213 38.6144383,288.506693 L2.47007175,282.058068 C-2.51981157,281.167808 -4.61596729,275.162605 -1.26396582,271.360555 L23.0163553,243.820294 C25.3903836,241.127522 29.4978365,240.869129 32.1906081,243.243158 C34.8833797,245.617186 35.1417723,249.724639 32.767744,252.417411 L24.8970054,261.344895 Z" transform="matrix(-1 0 0 1 157.11 0)"/>
  </g>
</svg>
