<svg xmlns="http://www.w3.org/2000/svg" width="446" height="419" viewBox="0 0 446 419">
  <g fill="none" fill-rule="evenodd" transform="translate(22 13)">
    <path fill="#F1F1F1" d="M389.554182 328.686895C386.387532 328.686895 258.028732 329.324255 4.47778155 330.598975-.162715395 304.248863-1.03853906 282.715343 1.85031056 265.998416 91.7820927 265.998416 299.673121 265.998416 389.554182 265.998416 389.554182 304.656311 394.304157 328.686895 389.554182 328.686895zM389.554182 202.26514C371.909072 202.26514 243.550272 201.220328 4.47778155 199.130705-.162715395 173.358774-1.03853906 152.114345 1.85031056 135.397417 91.7820927 135.397417 299.673121 135.397417 389.554182 135.397417 389.554182 174.610367 416.021847 202.26514 389.554182 202.26514zM389.554182 69.5745256C371.909072 69.5745256 243.550272 69.5745256 4.47778155 69.5745256 5.17844048 58.0816303 19.0164544 42.5836415 45.9918232 23.0805592 86.4548764-6.1740644 339.74308-3.56204444 361.813836 15.2444993 383.884593 34.051043 401.751395 69.5745145 389.554182 69.5745256z"/>
    <path stroke="#FFF" stroke-linejoin="round" stroke-width="7" d="M387.896376,290.328846 C387.342091,344.289126 343.191288,387.735172 288.928508,387.735172 L8.78792024,387.735172 L8.78792024,101.578308 C8.78792024,47.9206087 52.534943,4.43084339 106.489343,4.43084339 C148.370033,4.43084339 148.370033,4.43084339 192.45491,4.43084339 C199.866168,4.43084339 199.866168,4.43084339 207.285185,4.43084339 C258.996842,4.43084339 258.996842,4.43084339 308.081028,4.43084339 C324.927238,4.43084339 338.928469,8.02026638 350.462822,14.3002843 C358.284666,18.558982 363.205124,22.7557718 368.580138,28.5324268 C372.963152,33.2429565 375.711242,36.5961222 378.569291,41.1940464 C382.516881,47.5447832 385.354004,54.5904445 386.877978,62.6558323 C390.066852,79.5324392 390.337619,122.745295 387.896376,290.328811 Z"/>
    <path stroke="#000" stroke-linejoin="round" stroke-width="7" d="M289.175485,395.048828 L1.43100147,395.048828 L1.43100147,102.485966 C1.43100147,44.2877605 48.8806052,-2.8828125 107.40237,-2.8828125 L311.366393,-2.8828125 C358.279261,-2.8828125 396.317994,34.9322311 396.317994,81.5898063 L396.317994,162.097633 C396.317994,162.418202 396.316523,162.738769 396.31358,163.059325 C395.758111,223.571316 395.758111,223.571316 395.202642,284.083307 C395.187592,285.722916 395.187592,285.722916 395.172541,287.362524 C395.15749,289.002133 395.15749,289.002133 395.142439,290.641742 C394.611677,348.462265 347.319946,395.048828 289.175485,395.048828 Z"/>
    <g transform="translate(170 87)">
      <path fill="#545454" d="M26.1691775,22.1205298 C27.3554038,20.2847288 27.948508,18.2993738 27.948508,16.1644052 C27.948508,12.1800371 26.0028368,9.0184273 22.1114361,6.67948085 C20.2163673,5.65959141 18.2562301,5.14965434 16.2309658,5.14965434 C12.3540312,5.14965434 9.13535586,6.740658 6.57484311,9.92271306 C5.18609042,11.7993096 4.4917245,13.9342462 4.4917245,16.3275867 C4.4917245,19.8496049 6.15530953,22.8208383 9.4825295,25.2413759 C11.5367262,26.5468344 13.7283186,27.1995538 16.0573726,27.1995538 L16.4696565,27.1995538 C19.0301693,27.1995538 21.2000628,26.533236 22.9794021,25.2005805 C21.055401,23.2287943 19.9270564,21.9981461 19.5943344,21.5085992 L19.5943344,20.7334871 C19.8547255,19.4416271 20.5635574,18.7957068 21.7208513,18.7957068 L21.959542,18.7957068 C22.711783,18.7957068 23.7750309,19.5844095 25.1493174,21.1618385 L26.1691775,22.1205298 Z M29.2504571,25.2413759 C31.4348494,27.2675562 32.5270291,28.5865935 32.5270291,29.1985271 L32.5270291,29.3413109 C32.5270291,30.429193 31.7820323,31.1227074 30.2920164,31.421875 C29.4095798,31.421875 28.2016724,30.5379841 26.668258,28.7701757 C26.2632051,28.4846067 26.0534488,28.3418243 26.0389826,28.3418243 C23.2325449,30.3952017 20.0138695,31.421875 16.3828599,31.421875 L16.0573726,31.421875 C10.4878957,31.421875 5.93835229,28.9877754 2.40860589,24.1195031 C0.802860601,21.6445714 5.32907052e-14,18.9725011 5.32907052e-14,16.1032122 C5.32907052e-14,11.2349399 2.27115521,7.14184501 6.81353378,3.82380469 C9.79356558,1.89281401 12.9326782,0.927333158 16.2309658,0.927333158 C21.6991795,0.927333158 26.2776548,3.30703949 29.9665291,8.06652356 C31.6156729,10.7590317 32.4402325,13.4854952 32.4402325,16.245996 C32.4402325,19.4688466 31.3769847,22.4672766 29.2504571,25.2413759 Z"/>
      <path fill="#FF14BA" d="M60.9750998,2.7223296 C61.5625872,2.7223296 62.1842215,3.06266538 62.8400214,3.74334715 C63.2498963,5.04049542 65.7432647,11.2885466 70.3202013,22.4876882 L72.984375,29.2687858 L72.984375,29.4421662 C72.984375,30.5081395 72.3149227,31.1567039 70.9759979,31.3878789 L70.7505678,31.3878789 C70.2997054,31.3878789 69.766876,31.1695502 69.1520636,30.7328865 L65.0123476,20.4649175 L56.8558774,20.4649175 L53.5564008,28.517471 C53.1055383,30.4310858 52.2653074,31.3878789 51.0356826,31.3878789 L50.8922271,31.3878789 C49.5533023,31.169547 48.88385,30.5402468 48.88385,29.4999596 L48.88385,29.2495214 C48.9521625,28.8128576 52.0876586,20.9979775 58.2904325,5.80464673 C58.8096074,3.74975837 59.7044875,2.7223296 60.9750998,2.7223296 Z"/>
      <polygon fill="#FFF" points="58.536 16.477 61.016 10.37 63.414 16.477"/>
    </g>
    <g transform="translate(170 152)">
      <path fill="#545454" d="M26.1691775,22.1205298 C27.3554038,20.2847288 27.948508,18.2993738 27.948508,16.1644052 C27.948508,12.1800371 26.0028368,9.0184273 22.1114361,6.67948085 C20.2163673,5.65959141 18.2562301,5.14965434 16.2309658,5.14965434 C12.3540312,5.14965434 9.13535586,6.740658 6.57484311,9.92271306 C5.18609042,11.7993096 4.4917245,13.9342462 4.4917245,16.3275867 C4.4917245,19.8496049 6.15530953,22.8208383 9.4825295,25.2413759 C11.5367262,26.5468344 13.7283186,27.1995538 16.0573726,27.1995538 L16.4696565,27.1995538 C19.0301693,27.1995538 21.2000628,26.533236 22.9794021,25.2005805 C21.055401,23.2287943 19.9270564,21.9981461 19.5943344,21.5085992 L19.5943344,20.7334871 C19.8547255,19.4416271 20.5635574,18.7957068 21.7208513,18.7957068 L21.959542,18.7957068 C22.711783,18.7957068 23.7750309,19.5844095 25.1493174,21.1618385 L26.1691775,22.1205298 Z M29.2504571,25.2413759 C31.4348494,27.2675562 32.5270291,28.5865935 32.5270291,29.1985271 L32.5270291,29.3413109 C32.5270291,30.429193 31.7820323,31.1227074 30.2920164,31.421875 C29.4095798,31.421875 28.2016724,30.5379841 26.668258,28.7701757 C26.2632051,28.4846067 26.0534488,28.3418243 26.0389826,28.3418243 C23.2325449,30.3952017 20.0138695,31.421875 16.3828599,31.421875 L16.0573726,31.421875 C10.4878957,31.421875 5.93835229,28.9877754 2.40860589,24.1195031 C0.802860601,21.6445714 5.32907052e-14,18.9725011 5.32907052e-14,16.1032122 C5.32907052e-14,11.2349399 2.27115521,7.14184501 6.81353378,3.82380469 C9.79356558,1.89281401 12.9326782,0.927333158 16.2309658,0.927333158 C21.6991795,0.927333158 26.2776548,3.30703949 29.9665291,8.06652356 C31.6156729,10.7590317 32.4402325,13.4854952 32.4402325,16.245996 C32.4402325,19.4688466 31.3769847,22.4672766 29.2504571,25.2413759 Z"/>
      <path fill="#FF14BA" d="M60.9750998,2.7223296 C61.5625872,2.7223296 62.1842215,3.06266538 62.8400214,3.74334715 C63.2498963,5.04049542 65.7432647,11.2885466 70.3202013,22.4876882 L72.984375,29.2687858 L72.984375,29.4421662 C72.984375,30.5081395 72.3149227,31.1567039 70.9759979,31.3878789 L70.7505678,31.3878789 C70.2997054,31.3878789 69.766876,31.1695502 69.1520636,30.7328865 L65.0123476,20.4649175 L56.8558774,20.4649175 L53.5564008,28.517471 C53.1055383,30.4310858 52.2653074,31.3878789 51.0356826,31.3878789 L50.8922271,31.3878789 C49.5533023,31.169547 48.88385,30.5402468 48.88385,29.4999596 L48.88385,29.2495214 C48.9521625,28.8128576 52.0876586,20.9979775 58.2904325,5.80464673 C58.8096074,3.74975837 59.7044875,2.7223296 60.9750998,2.7223296 Z"/>
      <polygon fill="#FFF" points="58.536 16.477 61.016 10.37 63.414 16.477"/>
    </g>
    <g transform="translate(170 216)">
      <path fill="#545454" d="M26.1691775,22.1205298 C27.3554038,20.2847288 27.948508,18.2993738 27.948508,16.1644052 C27.948508,12.1800371 26.0028368,9.0184273 22.1114361,6.67948085 C20.2163673,5.65959141 18.2562301,5.14965434 16.2309658,5.14965434 C12.3540312,5.14965434 9.13535586,6.740658 6.57484311,9.92271306 C5.18609042,11.7993096 4.4917245,13.9342462 4.4917245,16.3275867 C4.4917245,19.8496049 6.15530953,22.8208383 9.4825295,25.2413759 C11.5367262,26.5468344 13.7283186,27.1995538 16.0573726,27.1995538 L16.4696565,27.1995538 C19.0301693,27.1995538 21.2000628,26.533236 22.9794021,25.2005805 C21.055401,23.2287943 19.9270564,21.9981461 19.5943344,21.5085992 L19.5943344,20.7334871 C19.8547255,19.4416271 20.5635574,18.7957068 21.7208513,18.7957068 L21.959542,18.7957068 C22.711783,18.7957068 23.7750309,19.5844095 25.1493174,21.1618385 L26.1691775,22.1205298 Z M29.2504571,25.2413759 C31.4348494,27.2675562 32.5270291,28.5865935 32.5270291,29.1985271 L32.5270291,29.3413109 C32.5270291,30.429193 31.7820323,31.1227074 30.2920164,31.421875 C29.4095798,31.421875 28.2016724,30.5379841 26.668258,28.7701757 C26.2632051,28.4846067 26.0534488,28.3418243 26.0389826,28.3418243 C23.2325449,30.3952017 20.0138695,31.421875 16.3828599,31.421875 L16.0573726,31.421875 C10.4878957,31.421875 5.93835229,28.9877754 2.40860589,24.1195031 C0.802860601,21.6445714 5.32907052e-14,18.9725011 5.32907052e-14,16.1032122 C5.32907052e-14,11.2349399 2.27115521,7.14184501 6.81353378,3.82380469 C9.79356558,1.89281401 12.9326782,0.927333158 16.2309658,0.927333158 C21.6991795,0.927333158 26.2776548,3.30703949 29.9665291,8.06652356 C31.6156729,10.7590317 32.4402325,13.4854952 32.4402325,16.245996 C32.4402325,19.4688466 31.3769847,22.4672766 29.2504571,25.2413759 Z"/>
      <path fill="#FF14BA" d="M60.9750998,2.7223296 C61.5625872,2.7223296 62.1842215,3.06266538 62.8400214,3.74334715 C63.2498963,5.04049542 65.7432647,11.2885466 70.3202013,22.4876882 L72.984375,29.2687858 L72.984375,29.4421662 C72.984375,30.5081395 72.3149227,31.1567039 70.9759979,31.3878789 L70.7505678,31.3878789 C70.2997054,31.3878789 69.766876,31.1695502 69.1520636,30.7328865 L65.0123476,20.4649175 L56.8558774,20.4649175 L53.5564008,28.517471 C53.1055383,30.4310858 52.2653074,31.3878789 51.0356826,31.3878789 L50.8922271,31.3878789 C49.5533023,31.169547 48.88385,30.5402468 48.88385,29.4999596 L48.88385,29.2495214 C48.9521625,28.8128576 52.0876586,20.9979775 58.2904325,5.80464673 C58.8096074,3.74975837 59.7044875,2.7223296 60.9750998,2.7223296 Z"/>
      <polygon fill="#FFF" points="58.536 16.477 61.016 10.37 63.414 16.477"/>
    </g>
    <g transform="translate(170 281)">
      <path fill="#545454" d="M26.1691775,22.1205298 C27.3554038,20.2847288 27.948508,18.2993738 27.948508,16.1644052 C27.948508,12.1800371 26.0028368,9.0184273 22.1114361,6.67948085 C20.2163673,5.65959141 18.2562301,5.14965434 16.2309658,5.14965434 C12.3540312,5.14965434 9.13535586,6.740658 6.57484311,9.92271306 C5.18609042,11.7993096 4.4917245,13.9342462 4.4917245,16.3275867 C4.4917245,19.8496049 6.15530953,22.8208383 9.4825295,25.2413759 C11.5367262,26.5468344 13.7283186,27.1995538 16.0573726,27.1995538 L16.4696565,27.1995538 C19.0301693,27.1995538 21.2000628,26.533236 22.9794021,25.2005805 C21.055401,23.2287943 19.9270564,21.9981461 19.5943344,21.5085992 L19.5943344,20.7334871 C19.8547255,19.4416271 20.5635574,18.7957068 21.7208513,18.7957068 L21.959542,18.7957068 C22.711783,18.7957068 23.7750309,19.5844095 25.1493174,21.1618385 L26.1691775,22.1205298 Z M29.2504571,25.2413759 C31.4348494,27.2675562 32.5270291,28.5865935 32.5270291,29.1985271 L32.5270291,29.3413109 C32.5270291,30.429193 31.7820323,31.1227074 30.2920164,31.421875 C29.4095798,31.421875 28.2016724,30.5379841 26.668258,28.7701757 C26.2632051,28.4846067 26.0534488,28.3418243 26.0389826,28.3418243 C23.2325449,30.3952017 20.0138695,31.421875 16.3828599,31.421875 L16.0573726,31.421875 C10.4878957,31.421875 5.93835229,28.9877754 2.40860589,24.1195031 C0.802860601,21.6445714 5.32907052e-14,18.9725011 5.32907052e-14,16.1032122 C5.32907052e-14,11.2349399 2.27115521,7.14184501 6.81353378,3.82380469 C9.79356558,1.89281401 12.9326782,0.927333158 16.2309658,0.927333158 C21.6991795,0.927333158 26.2776548,3.30703949 29.9665291,8.06652356 C31.6156729,10.7590317 32.4402325,13.4854952 32.4402325,16.245996 C32.4402325,19.4688466 31.3769847,22.4672766 29.2504571,25.2413759 Z"/>
      <path fill="#FF14BA" d="M60.9750998,2.7223296 C61.5625872,2.7223296 62.1842215,3.06266538 62.8400214,3.74334715 C63.2498963,5.04049542 65.7432647,11.2885466 70.3202013,22.4876882 L72.984375,29.2687858 L72.984375,29.4421662 C72.984375,30.5081395 72.3149227,31.1567039 70.9759979,31.3878789 L70.7505678,31.3878789 C70.2997054,31.3878789 69.766876,31.1695502 69.1520636,30.7328865 L65.0123476,20.4649175 L56.8558774,20.4649175 L53.5564008,28.517471 C53.1055383,30.4310858 52.2653074,31.3878789 51.0356826,31.3878789 L50.8922271,31.3878789 C49.5533023,31.169547 48.88385,30.5402468 48.88385,29.4999596 L48.88385,29.2495214 C48.9521625,28.8128576 52.0876586,20.9979775 58.2904325,5.80464673 C58.8096074,3.74975837 59.7044875,2.7223296 60.9750998,2.7223296 Z"/>
      <polygon fill="#FFF" points="58.536 16.477 61.016 10.37 63.414 16.477"/>
    </g>
    <g transform="translate(170 23)">
      <path fill="#545454" d="M26.1691775,22.1205298 C27.3554038,20.2847288 27.948508,18.2993738 27.948508,16.1644052 C27.948508,12.1800371 26.0028368,9.0184273 22.1114361,6.67948085 C20.2163673,5.65959141 18.2562301,5.14965434 16.2309658,5.14965434 C12.3540312,5.14965434 9.13535586,6.740658 6.57484311,9.92271306 C5.18609042,11.7993096 4.4917245,13.9342462 4.4917245,16.3275867 C4.4917245,19.8496049 6.15530953,22.8208383 9.4825295,25.2413759 C11.5367262,26.5468344 13.7283186,27.1995538 16.0573726,27.1995538 L16.4696565,27.1995538 C19.0301693,27.1995538 21.2000628,26.533236 22.9794021,25.2005805 C21.055401,23.2287943 19.9270564,21.9981461 19.5943344,21.5085992 L19.5943344,20.7334871 C19.8547255,19.4416271 20.5635574,18.7957068 21.7208513,18.7957068 L21.959542,18.7957068 C22.711783,18.7957068 23.7750309,19.5844095 25.1493174,21.1618385 L26.1691775,22.1205298 Z M29.2504571,25.2413759 C31.4348494,27.2675562 32.5270291,28.5865935 32.5270291,29.1985271 L32.5270291,29.3413109 C32.5270291,30.429193 31.7820323,31.1227074 30.2920164,31.421875 C29.4095798,31.421875 28.2016724,30.5379841 26.668258,28.7701757 C26.2632051,28.4846067 26.0534488,28.3418243 26.0389826,28.3418243 C23.2325449,30.3952017 20.0138695,31.421875 16.3828599,31.421875 L16.0573726,31.421875 C10.4878957,31.421875 5.93835229,28.9877754 2.40860589,24.1195031 C0.802860601,21.6445714 5.32907052e-14,18.9725011 5.32907052e-14,16.1032122 C5.32907052e-14,11.2349399 2.27115521,7.14184501 6.81353378,3.82380469 C9.79356558,1.89281401 12.9326782,0.927333158 16.2309658,0.927333158 C21.6991795,0.927333158 26.2776548,3.30703949 29.9665291,8.06652356 C31.6156729,10.7590317 32.4402325,13.4854952 32.4402325,16.245996 C32.4402325,19.4688466 31.3769847,22.4672766 29.2504571,25.2413759 Z"/>
      <path fill="#FF14BA" d="M60.9750998,2.7223296 C61.5625872,2.7223296 62.1842215,3.06266538 62.8400214,3.74334715 C63.2498963,5.04049542 65.7432647,11.2885466 70.3202013,22.4876882 L72.984375,29.2687858 L72.984375,29.4421662 C72.984375,30.5081395 72.3149227,31.1567039 70.9759979,31.3878789 L70.7505678,31.3878789 C70.2997054,31.3878789 69.766876,31.1695502 69.1520636,30.7328865 L65.0123476,20.4649175 L56.8558774,20.4649175 L53.5564008,28.517471 C53.1055383,30.4310858 52.2653074,31.3878789 51.0356826,31.3878789 L50.8922271,31.3878789 C49.5533023,31.169547 48.88385,30.5402468 48.88385,29.4999596 L48.88385,29.2495214 C48.9521625,28.8128576 52.0876586,20.9979775 58.2904325,5.80464673 C58.8096074,3.74975837 59.7044875,2.7223296 60.9750998,2.7223296 Z"/>
      <polygon fill="#FFF" points="58.536 16.477 61.016 10.37 63.414 16.477"/>
    </g>
    <path fill="#B8B8B8" d="M143.368164 29.3759766L143.609375 29.3759766C144.413415 29.5537118 144.81543 29.955726 144.81543 30.5820312L144.81543 47.1240234C144.663085 47.9619183 144.231449 48.3808594 143.520508 48.3808594L143.431641 48.3808594C142.593746 48.2031241 142.174805 47.8053416 142.174805 47.1875L142.174805 32.5117188C141.607745 32.6979176 141.171877 32.7910156 140.867188 32.7910156 140.266273 32.7910156 139.868491 32.3890014 139.673828 31.5849609L139.673828 31.2929688C139.673828 30.615882 140.414381 30.1250015 141.895508 29.8203125L143.368164 29.3759766zM148.547852 27.3066406L148.738281 27.3066406C149.37305 27.3066406 149.897784 27.9752537 150.3125 29.3125 151.819018 32.892596 152.572266 36.5995902 152.572266 40.4335938 152.572266 44.9531476 151.573578 49.2441203 149.576172 53.3066406 149.212238 53.543621 148.903322 53.6621094 148.649414 53.6621094L148.547852 53.6621094C147.828447 53.6621094 147.388347 53.1966192 147.227539 52.265625L148.293945 49.5996094C149.377284 46.535792 149.918945 43.4974109 149.918945 40.484375 149.918945 36.701153 149.051441 32.8672069 147.316406 28.9824219L147.227539 28.6777344C147.388347 27.7636673 147.828447 27.3066406 148.547852 27.3066406zM139.838867 92.3886719C141.683928 92.3886719 143.287754 93.2096272 144.650391 94.8515625 145.369795 95.9433648 145.729492 97.0732363 145.729492 98.2412109 145.729492 100.018564 144.878915 101.707023 143.177734 103.306641L138.416992 108.75293 144.726562 108.75293C145.412113 108.75293 145.826822 109.167639 145.970703 109.99707L145.970703 110.111328C145.843749 110.957687 145.412113 111.380859 144.675781 111.380859L135.332031 111.380859C134.5026 111.228515 134.087891 110.796879 134.087891 110.085938L134.087891 110.035156C134.087891 109.620441 134.422197 109.099938 135.09082 108.473633L142.504883 100.018555C142.868817 99.5107396 143.050781 98.9182977 143.050781 98.2412109 143.050781 96.7939381 142.28907 95.7783232 140.765625 95.1943359 140.528645 95.1181637 140.249351 95.0800781 139.927734 95.0800781L139.788086 95.0800781C138.400058 95.0800781 137.397139 95.8248623 136.779297 97.3144531 136.703125 97.6191421 136.648112 98.0253881 136.614258 98.5332031 136.301105 99.1679719 135.886396 99.4853516 135.370117 99.4853516L135.243164 99.4853516C134.405269 99.3330071 133.986328 98.9182977 133.986328 98.2412109 133.986328 96.1930236 134.959626 94.5172591 136.90625 93.2138672 137.947271 92.6637342 138.9248 92.3886719 139.838867 92.3886719zM148.547852 90.3066406L148.738281 90.3066406C149.37305 90.3066406 149.897784 90.9752537 150.3125 92.3125 151.819018 95.892596 152.572266 99.5995902 152.572266 103.433594 152.572266 107.953148 151.573578 112.24412 149.576172 116.306641 149.212238 116.543621 148.903322 116.662109 148.649414 116.662109L148.547852 116.662109C147.828447 116.662109 147.388347 116.196619 147.227539 115.265625L148.293945 112.599609C149.377284 109.535792 149.918945 106.497411 149.918945 103.484375 149.918945 99.701153 149.051441 95.8672069 147.316406 91.9824219L147.227539 91.6777344C147.388347 90.7636673 147.828447 90.3066406 148.547852 90.3066406zM140.270508 159.439453C141.819344 159.439453 143.152338 160.129225 144.269531 161.508789 144.895836 162.355147 145.208984 163.290359 145.208984 164.314453L145.208984 164.504883C145.208984 165.943692 144.70964 167.098954 143.710938 167.970703 145.217455 169.062505 145.970703 170.585928 145.970703 172.541016 145.970703 174.563812 145.018564 176.239577 143.114258 177.568359 142.124018 178.110029 141.146489 178.380859 140.181641 178.380859L140.041992 178.380859C137.756825 178.380859 135.979499 177.204439 134.709961 174.851562 134.405272 173.979813 134.25293 173.196944 134.25293 172.50293 134.25293 171.84277 134.701493 171.428061 135.598633 171.258789 136.326501 171.258789 136.753906 171.694657 136.880859 172.566406 136.880859 173.80209 137.528314 174.779619 138.823242 175.499023 139.280276 175.668295 139.733071 175.75293 140.181641 175.75293 141.451178 175.75293 142.416012 175.080085 143.076172 173.734375 143.220053 173.34505 143.291992 173.010744 143.291992 172.731445L143.291992 172.350586C143.291992 171.157221 142.627611 170.230472 141.298828 169.570312L139.686523 169.214844C139.221026 168.859373 138.988281 168.470054 138.988281 168.046875L138.988281 167.996094C138.988281 167.141272 139.546869 166.713867 140.664062 166.713867 141.171878 166.713867 141.713539 166.358402 142.289062 165.647461 142.509116 165.181964 142.619141 164.754559 142.619141 164.365234 142.619141 163.485022 142.179041 162.799482 141.298828 162.308594 140.985676 162.147786 140.63021 162.067383 140.232422 162.067383 139.216792 162.067383 138.493166 162.609044 138.061523 163.692383 137.943033 164.809576 137.765301 165.368164 137.52832 165.368164 137.299804 165.622072 137.007814 165.749023 136.652344 165.749023 135.789058 165.554361 135.357422 165.156579 135.357422 164.555664L135.357422 164.314453C135.357422 162.51171 136.254548 161.077154 138.048828 160.010742 138.734378 159.663735 139.474931 159.473307 140.270508 159.439453zM148.547852 157.306641L148.738281 157.306641C149.37305 157.306641 149.897784 157.975254 150.3125 159.3125 151.819018 162.892596 152.572266 166.59959 152.572266 170.433594 152.572266 174.953148 151.573578 179.24412 149.576172 183.306641 149.212238 183.543621 148.903322 183.662109 148.649414 183.662109L148.547852 183.662109C147.828447 183.662109 147.388347 183.196619 147.227539 182.265625L148.293945 179.599609C149.377284 176.535792 149.918945 173.497411 149.918945 170.484375 149.918945 166.701153 149.051441 162.867207 147.316406 158.982422L147.227539 158.677734C147.388347 157.763667 147.828447 157.306641 148.547852 157.306641zM141.870117 222.52832L142.162109 222.52832C142.686852 222.52832 143.088866 222.909176 143.368164 223.670898L143.304688 224.216797 143.304688 233.357422 144.396484 233.357422 144.828125 233.319336C145.471357 233.319336 145.902994 233.746741 146.123047 234.601562 146.123047 235.244795 145.742191 235.706053 144.980469 235.985352L144.206055 235.93457 143.304688 235.93457 143.304688 240.1875C143.304688 240.805342 142.889978 241.203124 142.060547 241.380859L141.933594 241.380859C141.095699 241.228515 140.676758 240.80111 140.676758 240.098633L140.676758 235.93457 134.633789 235.93457 133.389648 235.985352C132.712562 235.69759 132.374023 235.28288 132.374023 234.741211L132.374023 234.550781C132.374023 234.203774 132.568683 233.877931 132.958008 233.573242 138.027695 226.98011 140.706379 223.459312 140.994141 223.010742 141.290366 222.689126 141.582355 222.52832 141.870117 222.52832zM136.436523 233.357422L140.676758 233.357422 140.676758 227.834961 136.436523 233.357422zM148.547852 220.306641L148.738281 220.306641C149.37305 220.306641 149.897784 220.975254 150.3125 222.3125 151.819018 225.892596 152.572266 229.59959 152.572266 233.433594 152.572266 237.953148 151.573578 242.24412 149.576172 246.306641 149.212238 246.543621 148.903322 246.662109 148.649414 246.662109L148.547852 246.662109C147.828447 246.662109 147.388347 246.196619 147.227539 245.265625L148.293945 242.599609C149.377284 239.535792 149.918945 236.497411 149.918945 233.484375 149.918945 229.701153 149.051441 225.867207 147.316406 221.982422L147.227539 221.677734C147.388347 220.763667 147.828447 220.306641 148.547852 220.306641zM135.827148 287.464844L136.398438 287.52832 143.672852 287.52832C144.392256 287.52832 144.836588 287.972652 145.005859 288.861328 145.005859 289.580733 144.557296 290.037759 143.660156 290.232422L137.350586 290.232422 137.350586 294.282227 139.699219 294.282227C141.984386 294.282227 143.770176 295.450184 145.056641 297.786133 145.454429 298.750981 145.65332 299.601559 145.65332 300.337891 145.65332 302.428396 144.663096 304.159173 142.682617 305.530273 141.658524 306.097334 140.64714 306.380859 139.648438 306.380859L139.496094 306.380859C137.134754 306.380859 135.293952 305.162122 133.973633 302.724609 133.66048 301.793615 133.503906 300.993818 133.503906 300.325195 133.800132 299.512691 134.257158 299.106445 134.875 299.106445 135.831385 299.106445 136.30957 299.775058 136.30957 301.112305 136.673504 302.204107 137.240556 302.940428 138.010742 303.321289 138.637047 303.558269 139.149087 303.676758 139.546875 303.676758 141.036466 303.676758 142.094398 302.915047 142.720703 301.391602 142.839193 301.095376 142.898438 300.744143 142.898438 300.337891 142.898438 298.712882 142.039397 297.62956 140.321289 297.087891L139.242188 296.986328 135.928711 296.986328C135.302406 296.986328 134.875001 296.609704 134.646484 295.856445L134.646484 288.708984C134.646484 288.175779 135.040035 287.761069 135.827148 287.464844zM148.547852 285.306641L148.738281 285.306641C149.37305 285.306641 149.897784 285.975254 150.3125 287.3125 151.819018 290.892596 152.572266 294.59959 152.572266 298.433594 152.572266 302.953148 151.573578 307.24412 149.576172 311.306641 149.212238 311.543621 148.903322 311.662109 148.649414 311.662109L148.547852 311.662109C147.828447 311.662109 147.388347 311.196619 147.227539 310.265625L148.293945 307.599609C149.377284 304.535792 149.918945 301.497411 149.918945 298.484375 149.918945 294.701153 149.051441 290.867207 147.316406 286.982422L147.227539 286.677734C147.388347 285.763667 147.828447 285.306641 148.547852 285.306641z"/>
    <text fill="#B8B8B8" font-family="Comfortaa-Bold, Comfortaa" font-size="26" font-style="expanded" font-weight="bold">
      <tspan x="134.304" y="365">6)</tspan>
    </text>
  </g>
</svg>
