<svg xmlns="http://www.w3.org/2000/svg" width="446" height="419" viewBox="0 0 446 419">
  <g fill="none" fill-rule="evenodd" transform="translate(22 12)">
    <path fill="#FFF" stroke="#FFF" stroke-linejoin="round" stroke-width="7" d="M387.896376,291.328846 C387.342091,345.289126 343.191288,388.735172 288.928508,388.735172 L8.78792024,388.735172 L8.78792024,102.578308 C8.78792024,48.9206087 52.534943,5.43084339 106.489343,5.43084339 C148.52228,5.43084339 148.52228,5.43084339 192.769187,5.43084339 C200.023549,5.43084339 200.023549,5.43084339 207.285185,5.43084339 C258.996842,5.43084339 258.996842,5.43084339 308.081028,5.43084339 C324.927238,5.43084339 338.928469,9.02026638 350.462822,15.3002843 C358.284666,19.558982 363.205124,23.7557718 368.580138,29.5324268 C372.963152,34.2429565 375.711242,37.5961222 378.569291,42.1940464 C382.516881,48.5447832 385.354004,55.5904445 386.877978,63.6558323 C390.066852,80.5324392 390.337619,123.745295 387.896376,291.328811 Z"/>
    <path fill="#F1F1F1" d="M389.554182 329.686895C386.387532 329.686895 258.028732 330.324255 4.47778155 331.598975-.162715395 305.248863-1.03853906 283.715343 1.85031056 266.998416 91.7820927 266.998416 307.118939 266.998416 397 266.998416 397 305.656311 394.304157 329.686895 389.554182 329.686895zM389.554182 203.26514C371.909072 203.26514 243.550272 202.220328 4.47778155 200.130705-.162715395 174.358774-1.03853906 153.114345 1.85031056 136.397417 91.7820927 136.397417 307.118939 136.397417 397 136.397417 397 175.610367 397 203.26514 389.554182 203.26514zM392.554182 70.5745256C374.909072 70.5745256 249.550272 70.5745256 10.4777815 70.5745256 11.1784405 59.0816303 23.0422227 39.2183329 52 17.5 70 4 99.0030496 1.01666326 200.170441 1.6166574 274.336414 2.05651405 339-5 355.813836 15.2444993 374.604612 28.673419 386.851394 47.1167611 392.554182 70.5745256z"/>
    <path stroke="#000" stroke-linejoin="round" stroke-width="7" d="M289.175485,396.048828 L1.43100147,396.048828 L1.43100147,103.485966 C1.43100147,45.2877605 48.8806052,-1.8828125 107.40237,-1.8828125 L311.366393,-1.8828125 C358.279261,-1.8828125 396.317994,35.9322311 396.317994,82.5898063 L396.317994,163.097633 C396.317994,163.418202 396.316523,163.738769 396.31358,164.059325 C395.758111,224.571316 395.758111,224.571316 395.202642,285.083307 C395.187592,286.722916 395.187592,286.722916 395.172541,288.362524 C395.15749,290.002133 395.15749,290.002133 395.142439,291.641742 C394.611677,349.462265 347.319946,396.048828 289.175485,396.048828 Z"/>
    <g transform="translate(170 88)">
      <path fill="#545454" d="M26.1691775,22.1205298 C27.3554038,20.2847288 27.948508,18.2993738 27.948508,16.1644052 C27.948508,12.1800371 26.0028368,9.0184273 22.1114361,6.67948085 C20.2163673,5.65959141 18.2562301,5.14965434 16.2309658,5.14965434 C12.3540312,5.14965434 9.13535586,6.740658 6.57484311,9.92271306 C5.18609042,11.7993096 4.4917245,13.9342462 4.4917245,16.3275867 C4.4917245,19.8496049 6.15530953,22.8208383 9.4825295,25.2413759 C11.5367262,26.5468344 13.7283186,27.1995538 16.0573726,27.1995538 L16.4696565,27.1995538 C19.0301693,27.1995538 21.2000628,26.533236 22.9794021,25.2005805 C21.055401,23.2287943 19.9270564,21.9981461 19.5943344,21.5085992 L19.5943344,20.7334871 C19.8547255,19.4416271 20.5635574,18.7957068 21.7208513,18.7957068 L21.959542,18.7957068 C22.711783,18.7957068 23.7750309,19.5844095 25.1493174,21.1618385 L26.1691775,22.1205298 Z M29.2504571,25.2413759 C31.4348494,27.2675562 32.5270291,28.5865935 32.5270291,29.1985271 L32.5270291,29.3413109 C32.5270291,30.429193 31.7820323,31.1227074 30.2920164,31.421875 C29.4095798,31.421875 28.2016724,30.5379841 26.668258,28.7701757 C26.2632051,28.4846067 26.0534488,28.3418243 26.0389826,28.3418243 C23.2325449,30.3952017 20.0138695,31.421875 16.3828599,31.421875 L16.0573726,31.421875 C10.4878957,31.421875 5.93835229,28.9877754 2.40860589,24.1195031 C0.802860601,21.6445714 5.32907052e-14,18.9725011 5.32907052e-14,16.1032122 C5.32907052e-14,11.2349399 2.27115521,7.14184501 6.81353378,3.82380469 C9.79356558,1.89281401 12.9326782,0.927333158 16.2309658,0.927333158 C21.6991795,0.927333158 26.2776548,3.30703949 29.9665291,8.06652356 C31.6156729,10.7590317 32.4402325,13.4854952 32.4402325,16.245996 C32.4402325,19.4688466 31.3769847,22.4672766 29.2504571,25.2413759 Z"/>
      <path fill="#FF14BA" d="M60.9750998,2.7223296 C61.5625872,2.7223296 62.1842215,3.06266538 62.8400214,3.74334715 C63.2498963,5.04049542 65.7432647,11.2885466 70.3202013,22.4876882 L72.984375,29.2687858 L72.984375,29.4421662 C72.984375,30.5081395 72.3149227,31.1567039 70.9759979,31.3878789 L70.7505678,31.3878789 C70.2997054,31.3878789 69.766876,31.1695502 69.1520636,30.7328865 L65.0123476,20.4649175 L56.8558774,20.4649175 L53.5564008,28.517471 C53.1055383,30.4310858 52.2653074,31.3878789 51.0356826,31.3878789 L50.8922271,31.3878789 C49.5533023,31.169547 48.88385,30.5402468 48.88385,29.4999596 L48.88385,29.2495214 C48.9521625,28.8128576 52.0876586,20.9979775 58.2904325,5.80464673 C58.8096074,3.74975837 59.7044875,2.7223296 60.9750998,2.7223296 Z"/>
      <polygon fill="#FFF" points="58.536 16.477 61.016 10.37 63.414 16.477"/>
    </g>
    <g transform="translate(170 153)">
      <path fill="#545454" d="M26.1691775,22.1205298 C27.3554038,20.2847288 27.948508,18.2993738 27.948508,16.1644052 C27.948508,12.1800371 26.0028368,9.0184273 22.1114361,6.67948085 C20.2163673,5.65959141 18.2562301,5.14965434 16.2309658,5.14965434 C12.3540312,5.14965434 9.13535586,6.740658 6.57484311,9.92271306 C5.18609042,11.7993096 4.4917245,13.9342462 4.4917245,16.3275867 C4.4917245,19.8496049 6.15530953,22.8208383 9.4825295,25.2413759 C11.5367262,26.5468344 13.7283186,27.1995538 16.0573726,27.1995538 L16.4696565,27.1995538 C19.0301693,27.1995538 21.2000628,26.533236 22.9794021,25.2005805 C21.055401,23.2287943 19.9270564,21.9981461 19.5943344,21.5085992 L19.5943344,20.7334871 C19.8547255,19.4416271 20.5635574,18.7957068 21.7208513,18.7957068 L21.959542,18.7957068 C22.711783,18.7957068 23.7750309,19.5844095 25.1493174,21.1618385 L26.1691775,22.1205298 Z M29.2504571,25.2413759 C31.4348494,27.2675562 32.5270291,28.5865935 32.5270291,29.1985271 L32.5270291,29.3413109 C32.5270291,30.429193 31.7820323,31.1227074 30.2920164,31.421875 C29.4095798,31.421875 28.2016724,30.5379841 26.668258,28.7701757 C26.2632051,28.4846067 26.0534488,28.3418243 26.0389826,28.3418243 C23.2325449,30.3952017 20.0138695,31.421875 16.3828599,31.421875 L16.0573726,31.421875 C10.4878957,31.421875 5.93835229,28.9877754 2.40860589,24.1195031 C0.802860601,21.6445714 5.32907052e-14,18.9725011 5.32907052e-14,16.1032122 C5.32907052e-14,11.2349399 2.27115521,7.14184501 6.81353378,3.82380469 C9.79356558,1.89281401 12.9326782,0.927333158 16.2309658,0.927333158 C21.6991795,0.927333158 26.2776548,3.30703949 29.9665291,8.06652356 C31.6156729,10.7590317 32.4402325,13.4854952 32.4402325,16.245996 C32.4402325,19.4688466 31.3769847,22.4672766 29.2504571,25.2413759 Z"/>
      <path fill="#FF14BA" d="M60.9750998,2.7223296 C61.5625872,2.7223296 62.1842215,3.06266538 62.8400214,3.74334715 C63.2498963,5.04049542 65.7432647,11.2885466 70.3202013,22.4876882 L72.984375,29.2687858 L72.984375,29.4421662 C72.984375,30.5081395 72.3149227,31.1567039 70.9759979,31.3878789 L70.7505678,31.3878789 C70.2997054,31.3878789 69.766876,31.1695502 69.1520636,30.7328865 L65.0123476,20.4649175 L56.8558774,20.4649175 L53.5564008,28.517471 C53.1055383,30.4310858 52.2653074,31.3878789 51.0356826,31.3878789 L50.8922271,31.3878789 C49.5533023,31.169547 48.88385,30.5402468 48.88385,29.4999596 L48.88385,29.2495214 C48.9521625,28.8128576 52.0876586,20.9979775 58.2904325,5.80464673 C58.8096074,3.74975837 59.7044875,2.7223296 60.9750998,2.7223296 Z"/>
      <polygon fill="#FFF" points="58.536 16.477 61.016 10.37 63.414 16.477"/>
    </g>
    <g transform="translate(170 217)">
      <path fill="#545454" d="M26.1691775,22.1205298 C27.3554038,20.2847288 27.948508,18.2993738 27.948508,16.1644052 C27.948508,12.1800371 26.0028368,9.0184273 22.1114361,6.67948085 C20.2163673,5.65959141 18.2562301,5.14965434 16.2309658,5.14965434 C12.3540312,5.14965434 9.13535586,6.740658 6.57484311,9.92271306 C5.18609042,11.7993096 4.4917245,13.9342462 4.4917245,16.3275867 C4.4917245,19.8496049 6.15530953,22.8208383 9.4825295,25.2413759 C11.5367262,26.5468344 13.7283186,27.1995538 16.0573726,27.1995538 L16.4696565,27.1995538 C19.0301693,27.1995538 21.2000628,26.533236 22.9794021,25.2005805 C21.055401,23.2287943 19.9270564,21.9981461 19.5943344,21.5085992 L19.5943344,20.7334871 C19.8547255,19.4416271 20.5635574,18.7957068 21.7208513,18.7957068 L21.959542,18.7957068 C22.711783,18.7957068 23.7750309,19.5844095 25.1493174,21.1618385 L26.1691775,22.1205298 Z M29.2504571,25.2413759 C31.4348494,27.2675562 32.5270291,28.5865935 32.5270291,29.1985271 L32.5270291,29.3413109 C32.5270291,30.429193 31.7820323,31.1227074 30.2920164,31.421875 C29.4095798,31.421875 28.2016724,30.5379841 26.668258,28.7701757 C26.2632051,28.4846067 26.0534488,28.3418243 26.0389826,28.3418243 C23.2325449,30.3952017 20.0138695,31.421875 16.3828599,31.421875 L16.0573726,31.421875 C10.4878957,31.421875 5.93835229,28.9877754 2.40860589,24.1195031 C0.802860601,21.6445714 5.32907052e-14,18.9725011 5.32907052e-14,16.1032122 C5.32907052e-14,11.2349399 2.27115521,7.14184501 6.81353378,3.82380469 C9.79356558,1.89281401 12.9326782,0.927333158 16.2309658,0.927333158 C21.6991795,0.927333158 26.2776548,3.30703949 29.9665291,8.06652356 C31.6156729,10.7590317 32.4402325,13.4854952 32.4402325,16.245996 C32.4402325,19.4688466 31.3769847,22.4672766 29.2504571,25.2413759 Z"/>
      <path fill="#FF14BA" d="M60.9750998,2.7223296 C61.5625872,2.7223296 62.1842215,3.06266538 62.8400214,3.74334715 C63.2498963,5.04049542 65.7432647,11.2885466 70.3202013,22.4876882 L72.984375,29.2687858 L72.984375,29.4421662 C72.984375,30.5081395 72.3149227,31.1567039 70.9759979,31.3878789 L70.7505678,31.3878789 C70.2997054,31.3878789 69.766876,31.1695502 69.1520636,30.7328865 L65.0123476,20.4649175 L56.8558774,20.4649175 L53.5564008,28.517471 C53.1055383,30.4310858 52.2653074,31.3878789 51.0356826,31.3878789 L50.8922271,31.3878789 C49.5533023,31.169547 48.88385,30.5402468 48.88385,29.4999596 L48.88385,29.2495214 C48.9521625,28.8128576 52.0876586,20.9979775 58.2904325,5.80464673 C58.8096074,3.74975837 59.7044875,2.7223296 60.9750998,2.7223296 Z"/>
      <polygon fill="#FFF" points="58.536 16.477 61.016 10.37 63.414 16.477"/>
    </g>
    <g transform="translate(170 282)">
      <path fill="#545454" d="M26.1691775,22.1205298 C27.3554038,20.2847288 27.948508,18.2993738 27.948508,16.1644052 C27.948508,12.1800371 26.0028368,9.0184273 22.1114361,6.67948085 C20.2163673,5.65959141 18.2562301,5.14965434 16.2309658,5.14965434 C12.3540312,5.14965434 9.13535586,6.740658 6.57484311,9.92271306 C5.18609042,11.7993096 4.4917245,13.9342462 4.4917245,16.3275867 C4.4917245,19.8496049 6.15530953,22.8208383 9.4825295,25.2413759 C11.5367262,26.5468344 13.7283186,27.1995538 16.0573726,27.1995538 L16.4696565,27.1995538 C19.0301693,27.1995538 21.2000628,26.533236 22.9794021,25.2005805 C21.055401,23.2287943 19.9270564,21.9981461 19.5943344,21.5085992 L19.5943344,20.7334871 C19.8547255,19.4416271 20.5635574,18.7957068 21.7208513,18.7957068 L21.959542,18.7957068 C22.711783,18.7957068 23.7750309,19.5844095 25.1493174,21.1618385 L26.1691775,22.1205298 Z M29.2504571,25.2413759 C31.4348494,27.2675562 32.5270291,28.5865935 32.5270291,29.1985271 L32.5270291,29.3413109 C32.5270291,30.429193 31.7820323,31.1227074 30.2920164,31.421875 C29.4095798,31.421875 28.2016724,30.5379841 26.668258,28.7701757 C26.2632051,28.4846067 26.0534488,28.3418243 26.0389826,28.3418243 C23.2325449,30.3952017 20.0138695,31.421875 16.3828599,31.421875 L16.0573726,31.421875 C10.4878957,31.421875 5.93835229,28.9877754 2.40860589,24.1195031 C0.802860601,21.6445714 5.32907052e-14,18.9725011 5.32907052e-14,16.1032122 C5.32907052e-14,11.2349399 2.27115521,7.14184501 6.81353378,3.82380469 C9.79356558,1.89281401 12.9326782,0.927333158 16.2309658,0.927333158 C21.6991795,0.927333158 26.2776548,3.30703949 29.9665291,8.06652356 C31.6156729,10.7590317 32.4402325,13.4854952 32.4402325,16.245996 C32.4402325,19.4688466 31.3769847,22.4672766 29.2504571,25.2413759 Z"/>
      <path fill="#FF14BA" d="M60.9750998,2.7223296 C61.5625872,2.7223296 62.1842215,3.06266538 62.8400214,3.74334715 C63.2498963,5.04049542 65.7432647,11.2885466 70.3202013,22.4876882 L72.984375,29.2687858 L72.984375,29.4421662 C72.984375,30.5081395 72.3149227,31.1567039 70.9759979,31.3878789 L70.7505678,31.3878789 C70.2997054,31.3878789 69.766876,31.1695502 69.1520636,30.7328865 L65.0123476,20.4649175 L56.8558774,20.4649175 L53.5564008,28.517471 C53.1055383,30.4310858 52.2653074,31.3878789 51.0356826,31.3878789 L50.8922271,31.3878789 C49.5533023,31.169547 48.88385,30.5402468 48.88385,29.4999596 L48.88385,29.2495214 C48.9521625,28.8128576 52.0876586,20.9979775 58.2904325,5.80464673 C58.8096074,3.74975837 59.7044875,2.7223296 60.9750998,2.7223296 Z"/>
      <polygon fill="#FFF" points="58.536 16.477 61.016 10.37 63.414 16.477"/>
    </g>
    <g transform="translate(170 24)">
      <path fill="#545454" d="M26.1691775,22.1205298 C27.3554038,20.2847288 27.948508,18.2993738 27.948508,16.1644052 C27.948508,12.1800371 26.0028368,9.0184273 22.1114361,6.67948085 C20.2163673,5.65959141 18.2562301,5.14965434 16.2309658,5.14965434 C12.3540312,5.14965434 9.13535586,6.740658 6.57484311,9.92271306 C5.18609042,11.7993096 4.4917245,13.9342462 4.4917245,16.3275867 C4.4917245,19.8496049 6.15530953,22.8208383 9.4825295,25.2413759 C11.5367262,26.5468344 13.7283186,27.1995538 16.0573726,27.1995538 L16.4696565,27.1995538 C19.0301693,27.1995538 21.2000628,26.533236 22.9794021,25.2005805 C21.055401,23.2287943 19.9270564,21.9981461 19.5943344,21.5085992 L19.5943344,20.7334871 C19.8547255,19.4416271 20.5635574,18.7957068 21.7208513,18.7957068 L21.959542,18.7957068 C22.711783,18.7957068 23.7750309,19.5844095 25.1493174,21.1618385 L26.1691775,22.1205298 Z M29.2504571,25.2413759 C31.4348494,27.2675562 32.5270291,28.5865935 32.5270291,29.1985271 L32.5270291,29.3413109 C32.5270291,30.429193 31.7820323,31.1227074 30.2920164,31.421875 C29.4095798,31.421875 28.2016724,30.5379841 26.668258,28.7701757 C26.2632051,28.4846067 26.0534488,28.3418243 26.0389826,28.3418243 C23.2325449,30.3952017 20.0138695,31.421875 16.3828599,31.421875 L16.0573726,31.421875 C10.4878957,31.421875 5.93835229,28.9877754 2.40860589,24.1195031 C0.802860601,21.6445714 5.32907052e-14,18.9725011 5.32907052e-14,16.1032122 C5.32907052e-14,11.2349399 2.27115521,7.14184501 6.81353378,3.82380469 C9.79356558,1.89281401 12.9326782,0.927333158 16.2309658,0.927333158 C21.6991795,0.927333158 26.2776548,3.30703949 29.9665291,8.06652356 C31.6156729,10.7590317 32.4402325,13.4854952 32.4402325,16.245996 C32.4402325,19.4688466 31.3769847,22.4672766 29.2504571,25.2413759 Z"/>
      <path fill="#FF14BA" d="M60.9750998,2.7223296 C61.5625872,2.7223296 62.1842215,3.06266538 62.8400214,3.74334715 C63.2498963,5.04049542 65.7432647,11.2885466 70.3202013,22.4876882 L72.984375,29.2687858 L72.984375,29.4421662 C72.984375,30.5081395 72.3149227,31.1567039 70.9759979,31.3878789 L70.7505678,31.3878789 C70.2997054,31.3878789 69.766876,31.1695502 69.1520636,30.7328865 L65.0123476,20.4649175 L56.8558774,20.4649175 L53.5564008,28.517471 C53.1055383,30.4310858 52.2653074,31.3878789 51.0356826,31.3878789 L50.8922271,31.3878789 C49.5533023,31.169547 48.88385,30.5402468 48.88385,29.4999596 L48.88385,29.2495214 C48.9521625,28.8128576 52.0876586,20.9979775 58.2904325,5.80464673 C58.8096074,3.74975837 59.7044875,2.7223296 60.9750998,2.7223296 Z"/>
      <polygon fill="#FFF" points="58.536 16.477 61.016 10.37 63.414 16.477"/>
    </g>
    <path fill="#B8B8B8" d="M143.368164 30.3759766L143.609375 30.3759766C144.413415 30.5537118 144.81543 30.955726 144.81543 31.5820312L144.81543 48.1240234C144.663085 48.9619183 144.231449 49.3808594 143.520508 49.3808594L143.431641 49.3808594C142.593746 49.2031241 142.174805 48.8053416 142.174805 48.1875L142.174805 33.5117188C141.607745 33.6979176 141.171877 33.7910156 140.867188 33.7910156 140.266273 33.7910156 139.868491 33.3890014 139.673828 32.5849609L139.673828 32.2929688C139.673828 31.615882 140.414381 31.1250015 141.895508 30.8203125L143.368164 30.3759766zM148.547852 28.3066406L148.738281 28.3066406C149.37305 28.3066406 149.897784 28.9752537 150.3125 30.3125 151.819018 33.892596 152.572266 37.5995902 152.572266 41.4335938 152.572266 45.9531476 151.573578 50.2441203 149.576172 54.3066406 149.212238 54.543621 148.903322 54.6621094 148.649414 54.6621094L148.547852 54.6621094C147.828447 54.6621094 147.388347 54.1966192 147.227539 53.265625L148.293945 50.5996094C149.377284 47.535792 149.918945 44.4974109 149.918945 41.484375 149.918945 37.701153 149.051441 33.8672069 147.316406 29.9824219L147.227539 29.6777344C147.388347 28.7636673 147.828447 28.3066406 148.547852 28.3066406zM139.838867 93.3886719C141.683928 93.3886719 143.287754 94.2096272 144.650391 95.8515625 145.369795 96.9433648 145.729492 98.0732363 145.729492 99.2412109 145.729492 101.018564 144.878915 102.707023 143.177734 104.306641L138.416992 109.75293 144.726562 109.75293C145.412113 109.75293 145.826822 110.167639 145.970703 110.99707L145.970703 111.111328C145.843749 111.957687 145.412113 112.380859 144.675781 112.380859L135.332031 112.380859C134.5026 112.228515 134.087891 111.796879 134.087891 111.085938L134.087891 111.035156C134.087891 110.620441 134.422197 110.099938 135.09082 109.473633L142.504883 101.018555C142.868817 100.51074 143.050781 99.9182977 143.050781 99.2412109 143.050781 97.7939381 142.28907 96.7783232 140.765625 96.1943359 140.528645 96.1181637 140.249351 96.0800781 139.927734 96.0800781L139.788086 96.0800781C138.400058 96.0800781 137.397139 96.8248623 136.779297 98.3144531 136.703125 98.6191421 136.648112 99.0253881 136.614258 99.5332031 136.301105 100.167972 135.886396 100.485352 135.370117 100.485352L135.243164 100.485352C134.405269 100.333007 133.986328 99.9182977 133.986328 99.2412109 133.986328 97.1930236 134.959626 95.5172591 136.90625 94.2138672 137.947271 93.6637342 138.9248 93.3886719 139.838867 93.3886719zM148.547852 91.3066406L148.738281 91.3066406C149.37305 91.3066406 149.897784 91.9752537 150.3125 93.3125 151.819018 96.892596 152.572266 100.59959 152.572266 104.433594 152.572266 108.953148 151.573578 113.24412 149.576172 117.306641 149.212238 117.543621 148.903322 117.662109 148.649414 117.662109L148.547852 117.662109C147.828447 117.662109 147.388347 117.196619 147.227539 116.265625L148.293945 113.599609C149.377284 110.535792 149.918945 107.497411 149.918945 104.484375 149.918945 100.701153 149.051441 96.8672069 147.316406 92.9824219L147.227539 92.6777344C147.388347 91.7636673 147.828447 91.3066406 148.547852 91.3066406zM140.270508 160.439453C141.819344 160.439453 143.152338 161.129225 144.269531 162.508789 144.895836 163.355147 145.208984 164.290359 145.208984 165.314453L145.208984 165.504883C145.208984 166.943692 144.70964 168.098954 143.710938 168.970703 145.217455 170.062505 145.970703 171.585928 145.970703 173.541016 145.970703 175.563812 145.018564 177.239577 143.114258 178.568359 142.124018 179.110029 141.146489 179.380859 140.181641 179.380859L140.041992 179.380859C137.756825 179.380859 135.979499 178.204439 134.709961 175.851562 134.405272 174.979813 134.25293 174.196944 134.25293 173.50293 134.25293 172.84277 134.701493 172.428061 135.598633 172.258789 136.326501 172.258789 136.753906 172.694657 136.880859 173.566406 136.880859 174.80209 137.528314 175.779619 138.823242 176.499023 139.280276 176.668295 139.733071 176.75293 140.181641 176.75293 141.451178 176.75293 142.416012 176.080085 143.076172 174.734375 143.220053 174.34505 143.291992 174.010744 143.291992 173.731445L143.291992 173.350586C143.291992 172.157221 142.627611 171.230472 141.298828 170.570312L139.686523 170.214844C139.221026 169.859373 138.988281 169.470054 138.988281 169.046875L138.988281 168.996094C138.988281 168.141272 139.546869 167.713867 140.664062 167.713867 141.171878 167.713867 141.713539 167.358402 142.289062 166.647461 142.509116 166.181964 142.619141 165.754559 142.619141 165.365234 142.619141 164.485022 142.179041 163.799482 141.298828 163.308594 140.985676 163.147786 140.63021 163.067383 140.232422 163.067383 139.216792 163.067383 138.493166 163.609044 138.061523 164.692383 137.943033 165.809576 137.765301 166.368164 137.52832 166.368164 137.299804 166.622072 137.007814 166.749023 136.652344 166.749023 135.789058 166.554361 135.357422 166.156579 135.357422 165.555664L135.357422 165.314453C135.357422 163.51171 136.254548 162.077154 138.048828 161.010742 138.734378 160.663735 139.474931 160.473307 140.270508 160.439453zM148.547852 158.306641L148.738281 158.306641C149.37305 158.306641 149.897784 158.975254 150.3125 160.3125 151.819018 163.892596 152.572266 167.59959 152.572266 171.433594 152.572266 175.953148 151.573578 180.24412 149.576172 184.306641 149.212238 184.543621 148.903322 184.662109 148.649414 184.662109L148.547852 184.662109C147.828447 184.662109 147.388347 184.196619 147.227539 183.265625L148.293945 180.599609C149.377284 177.535792 149.918945 174.497411 149.918945 171.484375 149.918945 167.701153 149.051441 163.867207 147.316406 159.982422L147.227539 159.677734C147.388347 158.763667 147.828447 158.306641 148.547852 158.306641zM141.870117 223.52832L142.162109 223.52832C142.686852 223.52832 143.088866 223.909176 143.368164 224.670898L143.304688 225.216797 143.304688 234.357422 144.396484 234.357422 144.828125 234.319336C145.471357 234.319336 145.902994 234.746741 146.123047 235.601562 146.123047 236.244795 145.742191 236.706053 144.980469 236.985352L144.206055 236.93457 143.304688 236.93457 143.304688 241.1875C143.304688 241.805342 142.889978 242.203124 142.060547 242.380859L141.933594 242.380859C141.095699 242.228515 140.676758 241.80111 140.676758 241.098633L140.676758 236.93457 134.633789 236.93457 133.389648 236.985352C132.712562 236.69759 132.374023 236.28288 132.374023 235.741211L132.374023 235.550781C132.374023 235.203774 132.568683 234.877931 132.958008 234.573242 138.027695 227.98011 140.706379 224.459312 140.994141 224.010742 141.290366 223.689126 141.582355 223.52832 141.870117 223.52832zM136.436523 234.357422L140.676758 234.357422 140.676758 228.834961 136.436523 234.357422zM148.547852 221.306641L148.738281 221.306641C149.37305 221.306641 149.897784 221.975254 150.3125 223.3125 151.819018 226.892596 152.572266 230.59959 152.572266 234.433594 152.572266 238.953148 151.573578 243.24412 149.576172 247.306641 149.212238 247.543621 148.903322 247.662109 148.649414 247.662109L148.547852 247.662109C147.828447 247.662109 147.388347 247.196619 147.227539 246.265625L148.293945 243.599609C149.377284 240.535792 149.918945 237.497411 149.918945 234.484375 149.918945 230.701153 149.051441 226.867207 147.316406 222.982422L147.227539 222.677734C147.388347 221.763667 147.828447 221.306641 148.547852 221.306641zM135.827148 288.464844L136.398438 288.52832 143.672852 288.52832C144.392256 288.52832 144.836588 288.972652 145.005859 289.861328 145.005859 290.580733 144.557296 291.037759 143.660156 291.232422L137.350586 291.232422 137.350586 295.282227 139.699219 295.282227C141.984386 295.282227 143.770176 296.450184 145.056641 298.786133 145.454429 299.750981 145.65332 300.601559 145.65332 301.337891 145.65332 303.428396 144.663096 305.159173 142.682617 306.530273 141.658524 307.097334 140.64714 307.380859 139.648438 307.380859L139.496094 307.380859C137.134754 307.380859 135.293952 306.162122 133.973633 303.724609 133.66048 302.793615 133.503906 301.993818 133.503906 301.325195 133.800132 300.512691 134.257158 300.106445 134.875 300.106445 135.831385 300.106445 136.30957 300.775058 136.30957 302.112305 136.673504 303.204107 137.240556 303.940428 138.010742 304.321289 138.637047 304.558269 139.149087 304.676758 139.546875 304.676758 141.036466 304.676758 142.094398 303.915047 142.720703 302.391602 142.839193 302.095376 142.898438 301.744143 142.898438 301.337891 142.898438 299.712882 142.039397 298.62956 140.321289 298.087891L139.242188 297.986328 135.928711 297.986328C135.302406 297.986328 134.875001 297.609704 134.646484 296.856445L134.646484 289.708984C134.646484 289.175779 135.040035 288.761069 135.827148 288.464844zM148.547852 286.306641L148.738281 286.306641C149.37305 286.306641 149.897784 286.975254 150.3125 288.3125 151.819018 291.892596 152.572266 295.59959 152.572266 299.433594 152.572266 303.953148 151.573578 308.24412 149.576172 312.306641 149.212238 312.543621 148.903322 312.662109 148.649414 312.662109L148.547852 312.662109C147.828447 312.662109 147.388347 312.196619 147.227539 311.265625L148.293945 308.599609C149.377284 305.535792 149.918945 302.497411 149.918945 299.484375 149.918945 295.701153 149.051441 291.867207 147.316406 287.982422L147.227539 287.677734C147.388347 286.763667 147.828447 286.306641 148.547852 286.306641z"/>
    <text fill="#B8B8B8" font-family="Helvetica" font-size="26">
      <tspan x="132.882" y="367">6)</tspan>
    </text>
  </g>
</svg>
