<svg xmlns="http://www.w3.org/2000/svg" width="101" height="65" viewBox="0 0 101 65">
  <g fill="none" fill-rule="evenodd" transform="translate(12 16)">
    <path fill="#545454" d="M26.1691775,22.1205298 C27.3554038,20.2847288 27.948508,18.2993738 27.948508,16.1644052 C27.948508,12.1800371 26.0028368,9.0184273 22.1114361,6.67948085 C20.2163673,5.65959141 18.2562301,5.14965434 16.2309658,5.14965434 C12.3540312,5.14965434 9.13535586,6.740658 6.57484311,9.92271306 C5.18609042,11.7993096 4.4917245,13.9342462 4.4917245,16.3275867 C4.4917245,19.8496049 6.15530953,22.8208383 9.4825295,25.2413759 C11.5367262,26.5468344 13.7283186,27.1995538 16.0573726,27.1995538 L16.4696565,27.1995538 C19.0301693,27.1995538 21.2000628,26.533236 22.9794021,25.2005805 C21.055401,23.2287943 19.9270564,21.9981461 19.5943344,21.5085992 L19.5943344,20.7334871 C19.8547255,19.4416271 20.5635574,18.7957068 21.7208513,18.7957068 L21.959542,18.7957068 C22.711783,18.7957068 23.7750309,19.5844095 25.1493174,21.1618385 L26.1691775,22.1205298 Z M29.2504571,25.2413759 C31.4348494,27.2675562 32.5270291,28.5865935 32.5270291,29.1985271 L32.5270291,29.3413109 C32.5270291,30.429193 31.7820323,31.1227074 30.2920164,31.421875 C29.4095798,31.421875 28.2016724,30.5379841 26.668258,28.7701757 C26.2632051,28.4846067 26.0534488,28.3418243 26.0389826,28.3418243 C23.2325449,30.3952017 20.0138695,31.421875 16.3828599,31.421875 L16.0573726,31.421875 C10.4878957,31.421875 5.93835229,28.9877754 2.40860589,24.1195031 C0.802860601,21.6445714 5.32907052e-14,18.9725011 5.32907052e-14,16.1032122 C5.32907052e-14,11.2349399 2.27115521,7.14184501 6.81353378,3.82380469 C9.79356558,1.89281401 12.9326782,0.927333158 16.2309658,0.927333158 C21.6991795,0.927333158 26.2776548,3.30703949 29.9665291,8.06652356 C31.6156729,10.7590317 32.4402325,13.4854952 32.4402325,16.245996 C32.4402325,19.4688466 31.3769847,22.4672766 29.2504571,25.2413759 Z"/>
    <path fill="#FF14BA" d="M60.9750998,2.7223296 C61.5625872,2.7223296 62.1842215,3.06266538 62.8400214,3.74334715 C63.2498963,5.04049542 65.7432647,11.2885466 70.3202013,22.4876882 L72.984375,29.2687858 L72.984375,29.4421662 C72.984375,30.5081395 72.3149227,31.1567039 70.9759979,31.3878789 L70.7505678,31.3878789 C70.2997054,31.3878789 69.766876,31.1695502 69.1520636,30.7328865 L65.0123476,20.4649175 L56.8558774,20.4649175 L53.5564008,28.517471 C53.1055383,30.4310858 52.2653074,31.3878789 51.0356826,31.3878789 L50.8922271,31.3878789 C49.5533023,31.169547 48.88385,30.5402468 48.88385,29.4999596 L48.88385,29.2495214 C48.9521625,28.8128576 52.0876586,20.9979775 58.2904325,5.80464673 C58.8096074,3.74975837 59.7044875,2.7223296 60.9750998,2.7223296 Z"/>
    <polygon fill="#FFF" points="58.536 16.477 61.016 10.37 63.414 16.477"/>
  </g>
</svg>
