<?xml version="1.0" encoding="UTF-8"?>
<svg width="139px" height="46px" viewBox="0 0 139 46" version="1.1" xmlns="http://www.w3.org/2000/svg" xmlns:xlink="http://www.w3.org/1999/xlink">
    <!-- Generator: Sketch 52.2 (67145) - http://www.bohemiancoding.com/sketch -->
    <title>tex-logo-white</title>
    <desc>Created with Sketch.</desc>
    <g id="Page-1" stroke="none" stroke-width="1" fill="none" fill-rule="evenodd">
        <g id="tex" transform="translate(-54.000000, -104.000000)" fill="#FFFFFF">
            <path d="M63.708,148 L63.708,114.16 L54.06,114.16 L54.06,104.8 L84.156,104.8 L84.156,114.16 L74.364,114.16 L74.364,148 L63.708,148 Z M66.228,145.984 L71.772,145.984 L71.772,114.16 L66.228,114.16 L66.228,145.984 Z M89.052,148 L89.052,104.8 L99.636,104.8 L99.636,148 L89.052,148 Z M91.716,145.984 L96.972,145.984 L96.972,130.576 L91.716,130.576 L91.716,145.984 Z M106.548,148 L106.548,104.8 L117.132,104.8 L117.132,138.928 L135.924,138.928 L135.924,148 L106.548,148 Z M109.212,145.984 L114.468,140.944 L114.468,106.816 L109.212,106.816 L109.212,145.984 Z M150.9,149.44 L131.82,104.8 L142.908,104.8 L151.62,125.176 L156.876,111.64 L154.14,104.8 L165.084,104.8 L173.724,125.104 L181.644,104.8 L192.66,104.8 L174.66,149.44 L173.22,149.44 L162.564,124.528 L152.268,149.44 L150.9,149.44 Z M175.236,128.128 L177.972,134.536 L189.204,106.816 L183.66,106.816 L175.236,128.128 Z M155.796,134.392 L161.124,121.288 L158.388,115.096 L153.204,128.272 L155.796,134.392 Z" id="TEX"></path>
        </g>
    </g>
</svg>