<svg xmlns="http://www.w3.org/2000/svg" width="576" height="99" viewBox="0 0 576 99">
  <g fill="none" fill-rule="evenodd">
    <path fill="#797979" d="M29.425 31L29.425 39.235 21.73 39.235 21.73 66.955 12.46 66.955 12.46 39.235 4.765 39.235 4.765 31 29.425 31zM57.01 31L57.01 66.955 47.74 66.955 47.74 52.87 41.26 52.87 41.26 66.955 31.99 66.955 31.99 31 41.26 31 41.26 44.725 47.74 44.725 47.74 31 57.01 31zM81.535 58.72L81.535 66.955 60.655 66.955 60.655 31 81.535 31 81.535 39.235 69.925 39.235 69.925 44.725 81.535 44.725 81.535 52.915 69.925 52.915 69.925 58.72 81.535 58.72zM144.85 12L144.85 28.47 129.46 28.47 129.46 83.91 110.92 83.91 110.92 28.47 95.53 28.47 95.53 12 144.85 12zM198.85 23.43L198.85 72.57C198.85 80.58 194.71 83.91 186.52 83.91L162.31 83.91C154.57 83.91 149.98 80.76 149.98 72.57L149.98 23.43C149.98 15.78 154.12 12 162.31 12L186.52 12C194.35 12 198.85 15.24 198.85 23.43zM168.52 67.44L180.31 67.44 180.31 28.56 168.52 28.56 168.52 67.44zM253.75 54.39L253.75 83.91 235.21 83.91 235.21 57.99 224.68 57.99 224.68 83.91 206.14 83.91 206.14 12 224.68 12 224.68 41.61 225.22 41.61 235.21 12 253.66 12 241.87 43.59 243.04 43.5C248.35 43.5 253.75 47.91 253.75 54.39zM301.54 67.44L301.54 83.91 259.78 83.91 259.78 12 301.54 12 301.54 28.47 278.32 28.47 278.32 39.45 301.54 39.45 301.54 55.83 278.32 55.83 278.32 67.44 301.54 67.44zM360.85 12L360.85 83.91 345.37 83.91 326.47 50.97 326.47 83.91 307.93 83.91 307.93 12 324.13 12 342.31 43.41 342.31 12 360.85 12zM398.65 54.075L398.65 65.955 389.38 65.955 389.38 53.85 384.115 53.85 384.115 65.955 374.845 65.955 374.845 30 392.305 30C396.4 30 398.65 31.62 398.65 35.895L398.65 45.12C398.65 47.82 397.39 49.125 395.32 49.755L395.32 49.845C397.345 50.115 398.65 51.375 398.65 54.075zM384.115 45.66L389.38 45.66 389.38 38.235 384.115 38.235 384.115 45.66zM423.175 57.72L423.175 65.955 402.295 65.955 402.295 30 423.175 30 423.175 38.235 411.565 38.235 411.565 43.725 423.175 43.725 423.175 51.915 411.565 51.915 411.565 57.72 423.175 57.72zM449.455 47.28L449.455 65.955 432.625 65.955C428.575 65.955 426.37 64.425 426.37 60.285L426.37 35.895C426.37 31.62 428.575 30 432.67 30L446.305 30 446.305 38.235 435.64 38.28 435.64 57.72 440.185 57.72 440.185 47.28 449.455 47.28zM461.92 30L461.92 65.955 452.65 65.955 452.65 30 461.92 30zM487.03 49.845L487.03 60.285C487.03 64.425 484.78 65.955 480.73 65.955L465.565 65.955 465.565 57.72 477.76 57.72 477.76 51.96 471.82 51.96C466.735 51.96 465.565 49.485 465.565 46.335L465.565 35.895C465.565 31.62 467.77 30 471.865 30L486.13 30 486.13 38.235 474.835 38.235 474.835 43.725 480.685 43.725C485.005 43.725 487.03 45.525 487.03 49.845zM513.175 30L513.175 38.235 505.48 38.235 505.48 65.955 496.21 65.955 496.21 38.235 488.515 38.235 488.515 30 513.175 30zM539.545 54.075L539.545 65.955 530.275 65.955 530.275 53.85 525.01 53.85 525.01 65.955 515.74 65.955 515.74 30 533.2 30C537.295 30 539.545 31.62 539.545 35.895L539.545 45.12C539.545 47.82 538.285 49.125 536.215 49.755L536.215 49.845C538.24 50.115 539.545 51.375 539.545 54.075zM525.01 45.66L530.275 45.66 530.275 38.235 525.01 38.235 525.01 45.66zM567.04 30L567.04 47.19C567.04 51.465 564.745 52.995 560.65 52.995L559.48 52.995 559.48 65.955 550.21 65.955 550.21 52.995 548.86 52.995C544.765 52.995 542.56 51.465 542.56 47.19L542.56 30 551.83 30 551.83 44.76 557.77 44.76 557.77 30 567.04 30z"/>
  </g>
</svg>
