<svg xmlns="http://www.w3.org/2000/svg" width="576" height="99" viewBox="0 0 576 99">
  <g fill="none" fill-rule="evenodd">
    <path fill="#545454" d="M29.425 47L29.425 55.235 21.73 55.235 21.73 82.955 12.46 82.955 12.46 55.235 4.765 55.235 4.765 47 29.425 47zM57.01 47L57.01 82.955 47.74 82.955 47.74 68.87 41.26 68.87 41.26 82.955 31.99 82.955 31.99 47 41.26 47 41.26 60.725 47.74 60.725 47.74 47 57.01 47zM81.535 74.72L81.535 82.955 60.655 82.955 60.655 47 81.535 47 81.535 55.235 69.925 55.235 69.925 60.725 81.535 60.725 81.535 68.915 69.925 68.915 69.925 74.72 81.535 74.72zM144.85 12L144.85 28.47 129.46 28.47 129.46 83.91 110.92 83.91 110.92 28.47 95.53 28.47 95.53 12 144.85 12zM198.85 23.43L198.85 72.57C198.85 80.58 194.71 83.91 186.52 83.91L162.31 83.91C154.57 83.91 149.98 80.76 149.98 72.57L149.98 23.43C149.98 15.78 154.12 12 162.31 12L186.52 12C194.35 12 198.85 15.24 198.85 23.43zM168.52 67.44L180.31 67.44 180.31 28.56 168.52 28.56 168.52 67.44zM253.75 54.39L253.75 83.91 235.21 83.91 235.21 57.99 224.68 57.99 224.68 83.91 206.14 83.91 206.14 12 224.68 12 224.68 41.61 225.22 41.61 235.21 12 253.66 12 241.87 43.59 243.04 43.5C248.35 43.5 253.75 47.91 253.75 54.39zM301.54 67.44L301.54 83.91 259.78 83.91 259.78 12 301.54 12 301.54 28.47 278.32 28.47 278.32 39.45 301.54 39.45 301.54 55.83 278.32 55.83 278.32 67.44 301.54 67.44zM360.85 12L360.85 83.91 345.37 83.91 326.47 50.97 326.47 83.91 307.93 83.91 307.93 12 324.13 12 342.31 43.41 342.31 12 360.85 12zM398.65 72.075L398.65 83.955 389.38 83.955 389.38 71.85 384.115 71.85 384.115 83.955 374.845 83.955 374.845 48 392.305 48C396.4 48 398.65 49.62 398.65 53.895L398.65 63.12C398.65 65.82 397.39 67.125 395.32 67.755L395.32 67.845C397.345 68.115 398.65 69.375 398.65 72.075zM384.115 63.66L389.38 63.66 389.38 56.235 384.115 56.235 384.115 63.66zM423.175 75.72L423.175 83.955 402.295 83.955 402.295 48 423.175 48 423.175 56.235 411.565 56.235 411.565 61.725 423.175 61.725 423.175 69.915 411.565 69.915 411.565 75.72 423.175 75.72zM449.455 65.28L449.455 83.955 432.625 83.955C428.575 83.955 426.37 82.425 426.37 78.285L426.37 53.895C426.37 49.62 428.575 48 432.67 48L446.305 48 446.305 56.235 435.64 56.28 435.64 75.72 440.185 75.72 440.185 65.28 449.455 65.28zM461.92 48L461.92 83.955 452.65 83.955 452.65 48 461.92 48zM487.03 67.845L487.03 78.285C487.03 82.425 484.78 83.955 480.73 83.955L465.565 83.955 465.565 75.72 477.76 75.72 477.76 69.96 471.82 69.96C466.735 69.96 465.565 67.485 465.565 64.335L465.565 53.895C465.565 49.62 467.77 48 471.865 48L486.13 48 486.13 56.235 474.835 56.235 474.835 61.725 480.685 61.725C485.005 61.725 487.03 63.525 487.03 67.845zM513.175 48L513.175 56.235 505.48 56.235 505.48 83.955 496.21 83.955 496.21 56.235 488.515 56.235 488.515 48 513.175 48zM539.545 72.075L539.545 83.955 530.275 83.955 530.275 71.85 525.01 71.85 525.01 83.955 515.74 83.955 515.74 48 533.2 48C537.295 48 539.545 49.62 539.545 53.895L539.545 63.12C539.545 65.82 538.285 67.125 536.215 67.755L536.215 67.845C538.24 68.115 539.545 69.375 539.545 72.075zM525.01 63.66L530.275 63.66 530.275 56.235 525.01 56.235 525.01 63.66zM567.04 48L567.04 65.19C567.04 69.465 564.745 70.995 560.65 70.995L559.48 70.995 559.48 83.955 550.21 83.955 550.21 70.995 548.86 70.995C544.765 70.995 542.56 69.465 542.56 65.19L542.56 48 551.83 48 551.83 62.76 557.77 62.76 557.77 48 567.04 48z"/>
  </g>
</svg>
