<?xml version="1.0" encoding="UTF-8"?>
<svg width="1112px" height="837px" viewBox="0 0 1112 837" version="1.1" xmlns="http://www.w3.org/2000/svg" xmlns:xlink="http://www.w3.org/1999/xlink">
    <!-- Generator: Sketch 52.3 (67297) - http://www.bohemiancoding.com/sketch -->
    <title>undraw_old_day_6x25</title>
    <desc>Created with Sketch.</desc>
    <defs>
        <linearGradient x1="49.998857%" y1="100.004054%" x2="49.998857%" y2="0%" id="linearGradient-1">
            <stop stop-color="#808080" stop-opacity="0.25" offset="0%"></stop>
            <stop stop-color="#808080" stop-opacity="0.12" offset="54%"></stop>
            <stop stop-color="#808080" stop-opacity="0.1" offset="100%"></stop>
        </linearGradient>
        <linearGradient x1="49.999029%" y1="100.00847%" x2="49.999029%" y2="0.00100022097%" id="linearGradient-2">
            <stop stop-color="#808080" stop-opacity="0.25" offset="0%"></stop>
            <stop stop-color="#808080" stop-opacity="0.12" offset="54%"></stop>
            <stop stop-color="#808080" stop-opacity="0.1" offset="100%"></stop>
        </linearGradient>
        <linearGradient x1="50.0723589%" y1="99.9461787%" x2="50.0723589%" y2="-0.0538213132%" id="linearGradient-3">
            <stop stop-color="#808080" stop-opacity="0.25" offset="0%"></stop>
            <stop stop-color="#808080" stop-opacity="0.12" offset="54%"></stop>
            <stop stop-color="#808080" stop-opacity="0.1" offset="100%"></stop>
        </linearGradient>
        <linearGradient x1="50.0127603%" y1="99.9912538%" x2="50.0127603%" y2="0.0511486427%" id="linearGradient-4">
            <stop stop-color="#808080" stop-opacity="0.25" offset="0%"></stop>
            <stop stop-color="#808080" stop-opacity="0.12" offset="54%"></stop>
            <stop stop-color="#808080" stop-opacity="0.1" offset="100%"></stop>
        </linearGradient>
        <linearGradient x1="49.9972315%" y1="100.020498%" x2="49.9972315%" y2="0.0105640193%" id="linearGradient-5">
            <stop stop-color="#808080" stop-opacity="0.25" offset="0%"></stop>
            <stop stop-color="#808080" stop-opacity="0.12" offset="54%"></stop>
            <stop stop-color="#808080" stop-opacity="0.1" offset="100%"></stop>
        </linearGradient>
        <linearGradient x1="49.9928806%" y1="100.022374%" x2="49.9928806%" y2="-0.0587198234%" id="linearGradient-6">
            <stop stop-color="#808080" stop-opacity="0.25" offset="0%"></stop>
            <stop stop-color="#808080" stop-opacity="0.12" offset="54%"></stop>
            <stop stop-color="#808080" stop-opacity="0.1" offset="100%"></stop>
        </linearGradient>
        <linearGradient x1="50.0049169%" y1="100.000692%" x2="50.0049169%" y2="0.00906871248%" id="linearGradient-7">
            <stop stop-color="#808080" stop-opacity="0.25" offset="0%"></stop>
            <stop stop-color="#808080" stop-opacity="0.12" offset="54%"></stop>
            <stop stop-color="#808080" stop-opacity="0.1" offset="100%"></stop>
        </linearGradient>
        <linearGradient x1="50.0048511%" y1="100.000608%" x2="50.0048511%" y2="0.0126611095%" id="linearGradient-8">
            <stop stop-color="#808080" stop-opacity="0.25" offset="0%"></stop>
            <stop stop-color="#808080" stop-opacity="0.12" offset="54%"></stop>
            <stop stop-color="#808080" stop-opacity="0.1" offset="100%"></stop>
        </linearGradient>
        <linearGradient x1="50.002324%" y1="100%" x2="50.002324%" y2="0%" id="linearGradient-9">
            <stop stop-color="#808080" stop-opacity="0.25" offset="0%"></stop>
            <stop stop-color="#808080" stop-opacity="0.12" offset="54%"></stop>
            <stop stop-color="#808080" stop-opacity="0.1" offset="100%"></stop>
        </linearGradient>
        <linearGradient x1="49.9958708%" y1="100.004423%" x2="49.9958708%" y2="0.0832676291%" id="linearGradient-10">
            <stop stop-color="#808080" stop-opacity="0.25" offset="0%"></stop>
            <stop stop-color="#808080" stop-opacity="0.12" offset="54%"></stop>
            <stop stop-color="#808080" stop-opacity="0.1" offset="100%"></stop>
        </linearGradient>
        <linearGradient x1="50.0017437%" y1="99.9990923%" x2="50.0017437%" y2="-0.00329148392%" id="linearGradient-11">
            <stop stop-color="#808080" stop-opacity="0.25" offset="0%"></stop>
            <stop stop-color="#808080" stop-opacity="0.12" offset="54%"></stop>
            <stop stop-color="#808080" stop-opacity="0.1" offset="100%"></stop>
        </linearGradient>
        <linearGradient x1="50.0106205%" y1="100%" x2="50.0106205%" y2="0.00734683498%" id="linearGradient-12">
            <stop stop-color="#808080" stop-opacity="0.25" offset="0%"></stop>
            <stop stop-color="#808080" stop-opacity="0.12" offset="54%"></stop>
            <stop stop-color="#808080" stop-opacity="0.1" offset="100%"></stop>
        </linearGradient>
        <linearGradient x1="50.0099701%" y1="99.977314%" x2="50.0099701%" y2="1.93432687e-13%" id="linearGradient-13">
            <stop stop-color="#808080" stop-opacity="0.25" offset="0%"></stop>
            <stop stop-color="#808080" stop-opacity="0.12" offset="54%"></stop>
            <stop stop-color="#808080" stop-opacity="0.1" offset="100%"></stop>
        </linearGradient>
        <linearGradient x1="50%" y1="100.011228%" x2="50%" y2="0%" id="linearGradient-14">
            <stop stop-color="#808080" stop-opacity="0.25" offset="0%"></stop>
            <stop stop-color="#808080" stop-opacity="0.12" offset="54%"></stop>
            <stop stop-color="#808080" stop-opacity="0.1" offset="100%"></stop>
        </linearGradient>
        <linearGradient x1="50.0266186%" y1="99.9845934%" x2="50.0266186%" y2="0.00377160416%" id="linearGradient-15">
            <stop stop-color="#808080" stop-opacity="0.25" offset="0%"></stop>
            <stop stop-color="#808080" stop-opacity="0.12" offset="54%"></stop>
            <stop stop-color="#808080" stop-opacity="0.1" offset="100%"></stop>
        </linearGradient>
        <linearGradient x1="50.0177431%" y1="99.9945905%" x2="50.0177431%" y2="0.0137686866%" id="linearGradient-16">
            <stop stop-color="#808080" stop-opacity="0.25" offset="0%"></stop>
            <stop stop-color="#808080" stop-opacity="0.12" offset="54%"></stop>
            <stop stop-color="#808080" stop-opacity="0.1" offset="100%"></stop>
        </linearGradient>
        <linearGradient x1="50.0359856%" y1="100.002236%" x2="50.0359856%" y2="-0.0175855634%" id="linearGradient-17">
            <stop stop-color="#808080" stop-opacity="0.25" offset="0%"></stop>
            <stop stop-color="#808080" stop-opacity="0.12" offset="54%"></stop>
            <stop stop-color="#808080" stop-opacity="0.1" offset="100%"></stop>
        </linearGradient>
        <linearGradient x1="49.9948914%" y1="99.9836826%" x2="49.9948914%" y2="0%" id="linearGradient-18">
            <stop stop-color="#808080" stop-opacity="0.25" offset="0%"></stop>
            <stop stop-color="#808080" stop-opacity="0.12" offset="54%"></stop>
            <stop stop-color="#808080" stop-opacity="0.1" offset="100%"></stop>
        </linearGradient>
        <linearGradient x1="50%" y1="100%" x2="50%" y2="0%" id="linearGradient-19">
            <stop stop-color="#808080" stop-opacity="0.25" offset="0%"></stop>
            <stop stop-color="#808080" stop-opacity="0.12" offset="54%"></stop>
            <stop stop-color="#808080" stop-opacity="0.1" offset="100%"></stop>
        </linearGradient>
        <linearGradient x1="49.9969003%" y1="100%" x2="49.9969003%" y2="0.00393502668%" id="linearGradient-20">
            <stop stop-color="#808080" stop-opacity="0.25" offset="0%"></stop>
            <stop stop-color="#808080" stop-opacity="0.12" offset="54%"></stop>
            <stop stop-color="#808080" stop-opacity="0.1" offset="100%"></stop>
        </linearGradient>
        <linearGradient x1="50%" y1="99.929473%" x2="50%" y2="-0.00734935512%" id="linearGradient-21">
            <stop stop-color="#808080" stop-opacity="0.25" offset="0%"></stop>
            <stop stop-color="#808080" stop-opacity="0.12" offset="54%"></stop>
            <stop stop-color="#808080" stop-opacity="0.1" offset="100%"></stop>
        </linearGradient>
    </defs>
    <g id="Page-1" stroke="none" stroke-width="1" fill="none" fill-rule="evenodd">
        <g id="undraw_old_day_6x25">
            <path d="M935.14,163.87 C942.42,233.27 999.14,291.44 1052.7,330.44 C1070.62,343.5 1089.97,356.96 1101.27,378.44 C1115.08,404.65 1112.65,435.56 1103.8,459.02 C1087.68,501.79 1051.61,529.02 1009.89,529.86 C973.89,530.6 935.32,512.98 899.53,514.99 C839.63,518.31 800.21,575.17 774.75,635.39 C756.75,677.99 739.3,727.77 699.25,738.39 C671.07,745.89 637.65,731.17 609.43,708.83 C595.8,698.04 582.36,685.14 567.43,680.43 C558.57,677.63 549.8,677.97 541.43,679.18 C464.92,690.27 414.38,770.17 336.51,775.8 C283.92,779.64 226.32,747.89 179.08,702.8 C131.84,657.71 93.34,600.02 56.84,542.17 C30.9,501.06 4.44,456.01 0.51,409.23 C-3.7,359.73 19.51,318.17 52.28,297.56 C85.05,276.95 126.28,274.56 167.01,279 C217.95,284.53 272.35,299.87 316.37,280.19 C346.37,266.79 367.96,238.5 391.3,213.84 C430.3,172.62 475.69,140.44 521.24,109.09 C564.84,79.09 609.24,49.45 659.24,33.09 C694.68,21.48 732.34,25.4 768.75,18.66 C792.49,14.27 812.23,0.66 837.17,0.07 C867.89,-0.71 905.8,12.5 925.06,51.47 C943.4,88.48 931.27,127.04 935.14,163.87 Z" id="Path" fill="#6C63FF" opacity="0.1"></path>
            <path d="M790.08,13.62 L721.78,9.48 L682.26,6.66 L682.26,6.59 L681.77,6.59 L681.22,6.59 L681.22,6.67 L468.71,23.67 L451.09,23.67 L449.02,97.02 L483.23,109.08 L503.96,214.58 L409.63,401.45 L352.63,444.65 L352.63,485.84 L386.84,519 L388.91,670.72 L399.28,672.72 L399.28,671.11 L404.49,672.11 L404.49,672.71 L606.94,740.79 L615.45,746.56 L633.25,735.47 L776.65,652.62 L790.08,13.62 Z M572.43,484.94 L627.89,437.94 L572.43,484.94 Z M380.08,504.44 L395.08,519.01 L395.08,519.91 L380.08,504.44 Z" id="Shape" fill="url(#linearGradient-1)" fill-rule="nonzero"></path>
            <polygon id="Path" fill="#535461" points="407.35 522.08 609.35 573.08 579.35 539.08 562.35 518.08 385.35 483.08 377.35 490.08"></polygon>
            <polygon id="Path" fill="#D6D6E3" points="377.35 490.08 576.35 536.08 577.35 488.08 520.35 466.08 406.35 447.08 373.35 447.08"></polygon>
            <polygon id="Path" fill="#D6D6E3" points="521.35 218.08 724.35 231.08 724.35 193.08 710.35 108.08 703.35 102.08 500.35 108.08"></polygon>
            <polygon id="Path" fill="#D6D6E3" points="473.35 27.08 463.35 27.08 461.35 100.08 494.35 112.08 514.35 217.08 423.35 403.08 368.35 446.08 368.35 487.08 401.35 520.08 403.35 671.08 413.35 673.08 411.35 523.08 378.35 488.08 377.35 446.08 430.35 404.08 523.35 218.08 503.35 112.08 470.35 98.08 473.35 27.08"></polygon>
            <polygon id="Path" fill="#535461" points="465.35 27.08 455.35 27.08 453.35 100.08 486.35 112.08 506.35 217.08 415.35 403.08 360.35 446.08 360.35 487.08 393.35 520.08 395.35 671.08 405.35 673.08 403.35 523.08 370.35 488.08 369.35 446.08 424.35 404.08 515.35 218.08 495.35 112.08 462.35 98.08 465.35 27.08"></polygon>
            <polygon id="Path" fill="#A8A8A8" points="464.85 92.58 469.85 99.58 497.85 112.58 719.85 106.58 698.35 100.08 675.35 90.08 678.35 82.08"></polygon>
            <polygon id="Path" fill="#6C63FF" points="427.35 407.08 630.35 440.08 671.35 353.08 727.35 228.08 521.35 218.08"></polygon>
            <g id="Group" opacity="0.1" transform="translate(465.000000, 254.000000)" fill="#FFFFFF">
                <polygon id="Path" points="67.35 0.08 204.35 11.08 133.35 151.08 0.35 131.08"></polygon>
            </g>
            <g id="Group" opacity="0.1" transform="translate(538.000000, 264.000000)" fill="#FFFFFF">
                <polygon id="Path" points="3.8 0.25 9.85 0.74 6.72 6.91 0.85 6.03"></polygon>
            </g>
            <g id="Group" opacity="0.1" transform="translate(539.000000, 322.000000)" fill="#FFFFFF">
                <polygon id="Path" points="3.8 0.25 9.85 0.74 6.72 6.91 0.85 6.03"></polygon>
            </g>
            <g id="Group" opacity="0.1" transform="translate(572.000000, 271.000000)" fill="#FFFFFF">
                <polygon id="Path" points="3.8 0.25 9.85 0.74 6.72 6.91 0.85 6.03"></polygon>
            </g>
            <g id="Group" opacity="0.1" transform="translate(635.000000, 274.000000)" fill="#FFFFFF">
                <polygon id="Path" points="3.8 0.25 9.85 0.74 6.72 6.91 0.85 6.03"></polygon>
            </g>
            <g id="Group" opacity="0.1" transform="translate(550.000000, 282.000000)" fill="#FFFFFF">
                <polygon id="Path" points="3.8 0.25 9.85 0.74 6.72 6.91 0.85 6.03"></polygon>
            </g>
            <g id="Group" opacity="0.1" transform="translate(572.000000, 343.000000)" fill="#FFFFFF">
                <polygon id="Path" points="3.8 0.25 9.85 0.74 6.72 6.91 0.85 6.03"></polygon>
            </g>
            <g id="Group" opacity="0.1" transform="translate(518.000000, 308.000000)" fill="#FFFFFF">
                <polygon id="Path" points="3.8 0.25 9.85 0.74 6.72 6.91 0.85 6.03"></polygon>
            </g>
            <g id="Group" opacity="0.1" transform="translate(610.000000, 271.000000)" fill="#FFFFFF">
                <polygon id="Path" points="3.8 0.25 9.85 0.74 6.72 6.91 0.85 6.03"></polygon>
            </g>
            <g id="Group" opacity="0.1" transform="translate(562.000000, 305.000000)" fill="#FFFFFF">
                <polygon id="Path" points="3.8 0.25 9.85 0.74 6.72 6.91 0.85 6.03"></polygon>
            </g>
            <g id="Group" opacity="0.1" transform="translate(555.000000, 267.000000)" fill="#FFFFFF">
                <polygon id="Path" points="3.8 0.25 9.85 0.74 6.72 6.91 0.85 6.03"></polygon>
            </g>
            <g id="Group" opacity="0.1" transform="translate(586.000000, 302.000000)" fill="#FFFFFF">
                <polygon id="Path" points="3.8 0.25 9.85 0.74 6.72 6.91 0.85 6.03"></polygon>
            </g>
            <g id="Group" opacity="0.1" transform="translate(593.000000, 271.000000)" fill="#FFFFFF">
                <polygon id="Path" points="3.8 0.25 9.85 0.74 6.72 6.91 0.85 6.03"></polygon>
            </g>
            <g id="Group" opacity="0.1" transform="translate(530.000000, 285.000000)" fill="#FFFFFF">
                <polygon id="Path" points="3.8 0.25 9.85 0.74 6.72 6.91 0.85 6.03"></polygon>
            </g>
            <polygon id="Path" fill="#D6D6E3" points="373.35 447.08 571.35 487.08 625.89 439.36 427.85 405.58"></polygon>
            <polygon id="Path" fill="#535461" points="410.35 517.08 410.35 673.08 606.35 741.08 609.35 579.08 601.35 564.01 565.35 555.08"></polygon>
            <ellipse id="Oval" fill="#575988" cx="435.85" cy="420.08" rx="8.5" ry="5"></ellipse>
            <ellipse id="Oval" fill="#FA595F" cx="442.85" cy="431.08" rx="8.5" ry="5"></ellipse>
            <ellipse id="Oval" fill="#FFD037" cx="418.85" cy="428.08" rx="8.5" ry="5"></ellipse>
            <ellipse id="Oval" fill="#575988" cx="526.85" cy="438.08" rx="8.5" ry="5"></ellipse>
            <ellipse id="Oval" fill="#FFD037" cx="509.85" cy="447.08" rx="8.5" ry="5"></ellipse>
            <ellipse id="Oval" fill="#A8A8A8" cx="477.85" cy="432.08" rx="12.5" ry="6"></ellipse>
            <ellipse id="Oval" fill="#FA595F" cx="535.85" cy="449.08" rx="8.5" ry="5"></ellipse>
            <path d="M481.35,431.09 L475.35,431.09 L470.19,411.17 C469.750667,409.471668 470.122186,407.66562 471.196201,406.278595 C472.270215,404.891571 473.925764,404.079786 475.68,404.08 C478.811455,404.08 481.35,406.618545 481.35,409.75 L481.35,431.09 Z" id="Path" fill="#A8A8A8"></path>
            <ellipse id="Oval" fill="#A8A8A8" cx="567.85" cy="448.08" rx="12.5" ry="6"></ellipse>
            <path d="M571.35,447.09 L565.35,447.09 L560.19,427.17 C559.750667,425.471668 560.122186,423.66562 561.196201,422.278595 C562.270215,420.891571 563.925764,420.079786 565.68,420.08 C568.811455,420.08 571.35,422.618545 571.35,425.75 L571.35,447.09 Z" id="Path" fill="#A8A8A8"></path>
            <polygon id="Path" fill="#535461" points="472.35 27.08 678.35 10.08 673.35 85.08 467.35 95.08"></polygon>
            <polygon id="Path" fill="#D6D6E3" points="677.35 10.08 772.35 17.08 759.35 653.08 613.85 746.58 603.85 739.58 603.35 573.08 571.35 537.08 571.35 487.08 627.35 438.08 722.35 227.08 708.85 106.58 715.85 106.58 671.35 91.08"></polygon>
            <polygon id="Path" fill="#535461" points="686.35 11.08 782.35 17.08 769.35 653.08 613.35 746.08 613.35 573.08 581.35 537.08 581.35 487.08 637.35 438.08 732.35 227.08 715.35 106.08 681.35 91.08"></polygon>
            <path d="M517.46,396.38 C503.46,425.38 469,417.86 469,417.86 C467.22,416.21 456.08,413.45 447.63,411.54 C442.21,410.31 437.9,409.45 437.9,409.45 L449.73,392.96 L458.6,394.78 L471.83,397.5 C471.83,397.5 531.51,367.39 517.46,396.38 Z" id="Path" fill="url(#linearGradient-2)"></path>
            <g id="Group" opacity="0.08" transform="translate(437.000000, 383.000000)" fill="url(#linearGradient-2)">
                <path d="M80.46,13.38 C66.46,42.38 32,34.86 32,34.86 C30.22,33.21 19.08,30.45 10.63,28.54 C5.21,27.31 0.9,26.45 0.9,26.45 L12.73,9.96 L21.6,11.78 L34.83,14.5 C34.83,14.5 94.51,-15.61 80.46,13.38 Z" id="Path"></path>
            </g>
            <g id="Group" opacity="0.1" transform="translate(437.000000, 392.000000)" fill="url(#linearGradient-3)">
                <path d="M21.61,2.78 L10.61,19.55 C5.19,18.32 0.88,17.46 0.88,17.46 L12.71,0.97 L21.61,2.78 Z" id="Path"></path>
            </g>
            <path d="M335.63,334.84 C335.63,334.84 387.2,415.43 442.42,415.24 L457.42,392.24 C457.42,392.24 406.88,356.14 400.16,337.32 C397.68,330.32 392.56,320.73 387.1,311.32 C370.33,282.49 325.1,301.32 335.04,333 C335.233333,333.626667 335.43,334.24 335.63,334.84 Z" id="Path" fill="url(#linearGradient-4)"></path>
            <g id="Group" opacity="0.05" transform="translate(333.000000, 297.000000)" fill="url(#linearGradient-4)">
                <path d="M2.63,37.84 C2.63,37.84 54.2,118.43 109.42,118.24 L124.42,95.24 C124.42,95.24 73.88,59.14 67.16,40.32 C64.68,33.32 59.56,23.73 54.1,14.32 C37.33,-14.51 -7.9,4.32 2.04,36 C2.23333333,36.6266667 2.43,37.24 2.63,37.84 Z" id="Path"></path>
            </g>
            <path d="M302.06,803.27 L304.48,831.27 C304.48,831.27 383.69,818.11 383,791.8 C382.31,765.49 302.06,803.27 302.06,803.27 Z" id="Path" fill="url(#linearGradient-5)"></path>
            <g id="Group" opacity="0.1" transform="translate(302.000000, 782.000000)" fill="url(#linearGradient-5)">
                <path d="M0.06,21.27 L2.48,49.27 C2.48,49.27 81.69,36.11 81,9.8 C80.31,-16.51 0.06,21.27 0.06,21.27 Z" id="Path"></path>
            </g>
            <path d="M394.76,812.04 L393.38,836.33 C393.38,836.33 503.38,828.23 499.22,805.33 C495.06,782.43 436.96,795.17 436.96,795.17 L394.76,812.04 Z" id="Path" fill="url(#linearGradient-6)"></path>
            <path d="M396.14,574.54 C396.14,574.54 389.64,592.54 381.34,613.16 C373.4,632.9 363.82,655.09 356.71,666.3 C342.18,689.24 340.11,760.09 340.11,760.09 C337.34,771.56 351.18,793.83 351.18,793.83 C323.51,822.83 297.91,805.98 297.91,805.98 C302.75,797.21 294.45,772.24 294.45,772.24 C294.45,772.24 305.52,656.86 312.45,651.46 C319.38,646.06 324.9,619.07 324.9,619.07 L318.71,527.35 L317.29,506.35 L376.78,480.04 L381.07,500.96 L385.32,521.67 L396.14,574.54 Z" id="Path" fill="url(#linearGradient-7)"></path>
            <g id="Group" opacity="0.1" transform="translate(294.000000, 480.000000)" fill="url(#linearGradient-7)">
                <path d="M102.14,94.54 C102.14,94.54 95.64,112.54 87.34,133.16 C79.4,152.9 69.82,175.09 62.71,186.3 C48.18,209.24 46.11,280.09 46.11,280.09 C43.34,291.56 57.18,313.83 57.18,313.83 C29.51,342.83 3.91,325.98 3.91,325.98 C8.75,317.21 0.45,292.24 0.45,292.24 C0.45,292.24 11.52,176.86 18.45,171.46 C25.38,166.06 30.9,139.07 30.9,139.07 L24.71,47.35 L23.29,26.35 L82.78,0.04 L87.07,20.96 L91.32,41.67 L102.14,94.54 Z" id="Path"></path>
            </g>
            <path d="M448.02,797.88 C435.57,819.47 392.02,816.77 392.02,816.77 L392.02,753.34 C392.02,753.34 379.57,682.49 386.49,666.34 C393.41,650.19 383.72,620.46 383.72,620.46 L381.34,613.17 L353.13,526.17 L344.95,500.95 L438.34,500.95 C438.34,500.95 438.34,505.27 438.34,512.29 C438.46,539.29 439.02,606.2 441.77,621.73 C445.23,641.3 435.54,654.12 435.54,654.12 C435.54,654.12 441.07,733.74 436.23,758.7 C431.39,783.66 448.02,797.88 448.02,797.88 Z" id="Path" fill="url(#linearGradient-8)"></path>
            <path d="M371.24,204.78 C371.24,204.78 356.71,243.91 327.66,258.08 C298.61,272.25 375.39,276.3 375.39,276.3 C375.39,276.3 387.84,246.61 416.2,225.69 L371.24,204.78 Z" id="Path" fill="url(#linearGradient-9)"></path>
            <g id="Group" opacity="0.1" transform="translate(317.000000, 480.000000)" fill="url(#linearGradient-10)">
                <path d="M121.37,32.33 C109.79,34.56 89.3,38.38 68.31,41.7 C57.31,43.44 46.19,45.04 36.13,46.2 C20.65,47.99 7.7,48.74 1.7,47.34 L0.28,26.34 L59.77,0.03 L64.06,20.95 L121.34,20.95 C121.34,20.95 121.34,25.31 121.37,32.33 Z" id="Path"></path>
            </g>
            <path d="M448.02,508.41 C448.02,508.41 331.11,532.03 316.59,524.61 C302.07,517.19 298.59,498.3 302.75,477.38 C306.91,456.46 302.75,404.51 295.14,338.38 C291.31,305.08 299.75,282.73 309.09,268.75 C317.41497,256.512359 331.289452,249.226381 346.09,249.32 C358.734788,249.268429 371.024832,253.497867 380.96,261.32 C383.88,263.65 386.83,265.56 389.24,266.21 C391.14,266.72 394,268.74 397.24,271.49 C411.667324,283.915186 420.723655,301.443685 422.51,320.4 C423.71,332.97 424.98,348.8 425.6,364.8 C426.236866,378.463587 426.096639,392.152327 425.18,405.8 C424.537503,415.791767 425.013793,425.824043 426.6,435.71 C431.99,472.17 448.02,508.41 448.02,508.41 Z" id="Path" fill="url(#linearGradient-11)"></path>
            <g id="Group" opacity="0.1" transform="translate(362.000000, 307.000000)" fill="url(#linearGradient-12)">
                <path d="M64.61,128.76 C22.18,102.94 0.24,30.7 0.24,30.7 C0.24,30.07 0.24,29.45 0.17,28.84 C-0.78,-4.29 48,-10.67 56.28,21.48 C58.97,31.95 61.28,42.57 61.76,49.91 C62.0216627,52.6107969 62.6438601,55.2643847 63.61,57.8 C64.2468655,71.4635869 64.1066394,85.1523271 63.19,98.8 C62.5437618,108.808365 63.0200616,118.857622 64.61,128.76 Z" id="Path"></path>
            </g>
            <g id="Group" opacity="0.1" transform="translate(363.000000, 208.000000)" fill="url(#linearGradient-13)">
                <path d="M0.97,20.06 C7.87,31.47 13.33,42.96 27.34,44.91 C34.2184215,36.1820998 42.2134711,28.3954998 51.12,21.75 L6.12,0.83 C6.12,0.83 8.76,7.97 0.97,20.06 Z" id="Path"></path>
            </g>
            <ellipse id="Oval" fill="url(#linearGradient-14)" cx="398.91" cy="204.77" rx="45.66" ry="44.53"></ellipse>
            <g id="Group" opacity="0.1" transform="translate(341.000000, 138.000000)" fill="url(#linearGradient-15)">
                <path d="M103.04,80.74 C104.929285,80.8207886 106.798522,80.3255804 108.4,79.32 C110.59,77.73 111.29,74.88 111.79,72.26 C112.98,66.07 113.91,59.55 111.79,53.59 C110.42,49.65 107.79,46.24 105.95,42.5 C101.85,34.33 101.12,24.5 95.27,17.41 C91.62,12.97 78.79,17.41 73.43,15.17 C61.91,10.33 56.91,0.51 44.36,0.52 C39.7608057,0.407880615 35.1705303,0.980822481 30.74,2.22 C25.13,3.95 20.17,7.22 15.56,10.81 C7.56,17.03 -0.28,25.57 0.43,35.55 C0.89,41.92 4.78,47.55 7.07,53.49 C10.91,63.49 10.21,74.73 7.44,85.09 C6.26,89.5 4.91,94.77 8.04,98.14 C10.04,100.25 13.21,100.85 16.04,100.39 C18.8626406,99.7645014 21.5646405,98.6837014 24.04,97.19 C28.54,94.8 33.1,92.37 36.74,88.86 C39.15,86.54 41.09,83.8 43.38,81.37 C47.8635874,76.7232214 52.9407437,72.6883952 58.48,69.37 C62.91,66.71 67.48,68.37 72.13,70.1 C82.35,73.85 91.8,80.94 103.04,80.74 Z" id="Path"></path>
            </g>
            <path d="M443.35,218.06 C445.239285,218.140789 447.108522,217.64558 448.71,216.64 C450.9,215.05 451.6,212.2 452.1,209.58 C453.29,203.39 454.22,196.87 452.1,190.91 C450.73,186.97 448.1,183.56 446.26,179.82 C442.16,171.65 441.43,161.82 435.58,154.73 C431.93,150.29 419.79,155.41 414.43,153.16 C402.91,148.32 397.22,137.83 384.67,137.84 C380.070806,137.727881 375.48053,138.300822 371.05,139.54 C365.44,141.27 360.48,144.54 355.87,148.13 C347.87,154.35 340.03,162.89 340.74,172.87 C341.2,179.24 345.09,184.87 347.38,190.81 C351.22,200.81 350.52,212.05 347.75,222.41 C346.57,226.82 345.22,232.09 348.35,235.46 C350.35,237.57 353.52,238.17 356.35,237.71 C359.172641,237.084501 361.874641,236.003701 364.35,234.51 C368.85,232.12 373.41,229.69 377.05,226.18 C379.46,223.86 381.4,221.12 383.69,218.69 C388.173587,214.043221 393.250744,210.008395 398.79,206.69 C403.22,204.03 407.79,205.69 412.44,207.42 C422.66,211.17 432.11,218.26 443.35,218.06 Z" id="Path" fill="url(#linearGradient-16)"></path>
            <g id="Group" opacity="0.05" transform="translate(322.000000, 259.000000)" fill="url(#linearGradient-17)">
                <path d="M104.61,176.76 C103.023793,166.874043 102.547503,156.841767 103.19,146.85 C104.106639,133.202327 104.246866,119.513587 103.61,105.85 C102.99,89.85 101.73,74.02 100.52,61.45 C98.725672,42.4741342 89.6464893,24.9322788 75.19,12.51 C71.98,9.76 69.12,7.73 67.19,7.23 C64.78,6.59 61.83,4.67 58.91,2.34 C49.09,-5.49 61.57,9.76 64.78,12.51 C79.2364893,24.9322788 88.315672,42.4741342 90.11,61.45 C91.31,74.02 92.58,89.85 93.2,105.85 C93.8368655,119.513587 93.6966394,133.202327 92.78,146.85 C92.137503,156.841767 92.6137929,166.874043 94.2,176.76 C99.58,213.19 115.61,249.41 115.61,249.41 C115.61,249.41 37.35,265.22 0.93,266.9 C29.47,268.9 125.98,249.41 125.98,249.41 C125.98,249.41 109.99,213.17 104.61,176.76 Z" id="Path"></path>
            </g>
            <path d="M522.04,442.29 C500.59,466.58 469.47,450.39 469.47,450.39 C468.2,448.33 458.22,442.78 450.61,438.74 C445.72,436.15 441.8,434.19 441.8,434.19 L457.71,421.37 L465.76,425.43 L477.76,431.49 C477.76,431.49 543.51,418 522.04,442.29 Z" id="Path" fill="url(#linearGradient-18)"></path>
            <g id="Group" opacity="0.1" transform="translate(441.000000, 421.000000)" fill="url(#linearGradient-19)">
                <path d="M24.76,4.43 L9.61,17.74 C4.72,15.15 0.8,13.19 0.8,13.19 L16.71,0.37 L24.76,4.43 Z" id="Path"></path>
            </g>
            <path d="M363.63,335.68 C363.63,335.68 391.3,426.77 444.57,440.94 L465.32,422.72 C465.32,422.72 426.51,374.78 425.15,354.89 C424.66,347.54 422.36,336.89 419.67,326.46 C411.39,294.32 362.61,300.69 363.56,333.82 C363.58,334.433333 363.603333,335.053333 363.63,335.68 Z" id="Path" fill="url(#linearGradient-20)"></path>
            <path d="M310.02,424.41 C310.02,424.41 328.02,410.24 344.61,421.04 C361.2,431.84 385.42,430.49 388.88,431.16" id="Path" fill="url(#linearGradient-21)" opacity="0.05"></path>
            <path d="M512.28,394.9 C498.93,423.18 466.16,415.9 466.16,415.9 C464.46,414.29 453.86,411.6 445.83,409.74 C440.67,408.54 436.57,407.74 436.57,407.74 L447.83,391.65 L456.27,393.43 L468.86,396.08 C468.86,396.08 525.63,366.61 512.28,394.9 Z" id="Path" fill="#F7C4A7"></path>
            <path d="M512.28,394.9 C498.93,423.18 466.16,415.9 466.16,415.9 C464.46,414.29 453.86,411.6 445.83,409.74 C440.67,408.54 436.57,407.74 436.57,407.74 L447.83,391.65 L456.27,393.43 L468.86,396.08 C468.86,396.08 525.63,366.61 512.28,394.9 Z" id="Path" fill="#000000" opacity="0.08"></path>
            <path d="M456.27,393.33 L445.83,409.69 C440.67,408.49 436.57,407.69 436.57,407.69 L447.83,391.6 L456.27,393.33 Z" id="Path" fill="#000000" opacity="0.1"></path>
            <path d="M339.24,334.85 C339.24,334.85 388.32,413.49 440.86,413.29 L455.15,390.89 C455.15,390.89 407.06,355.67 400.66,337.3 C398.3,330.52 393.43,321.12 388.24,311.96 C372.24,283.84 329.24,302.21 338.69,333.12 C338.87,333.686667 339.053333,334.263333 339.24,334.85 Z" id="Path" fill="#575988"></path>
            <path d="M339.24,334.85 C339.24,334.85 388.32,413.49 440.86,413.29 L455.15,390.89 C455.15,390.89 407.06,355.67 400.66,337.3 C398.3,330.52 393.43,321.12 388.24,311.96 C372.24,283.84 329.24,302.21 338.69,333.12 C338.87,333.686667 339.053333,334.263333 339.24,334.85 Z" id="Path" fill="#000000" opacity="0.05"></path>
            <path d="M307.29,791.9 L309.59,819.22 C309.59,819.22 384.97,806.38 384.31,780.71 C383.65,755.04 307.29,791.9 307.29,791.9 Z" id="Path" fill="#535461"></path>
            <path d="M307.29,791.9 L309.59,819.22 C309.59,819.22 384.97,806.38 384.31,780.71 C383.65,755.04 307.29,791.9 307.29,791.9 Z" id="Path" fill="#000000" opacity="0.1"></path>
            <path d="M395.51,800.46 L394.19,824.17 C394.19,824.17 498.87,816.27 494.92,793.89 C490.97,771.51 435.67,784.01 435.67,784.01 L395.51,800.46 Z" id="Path" fill="#535461"></path>
            <path d="M396.82,568.72 C396.82,568.72 390.63,586.26 382.73,606.4 C375.17,625.66 366.05,647.31 359.29,658.25 C345.51,680.64 343.51,749.76 343.51,749.76 C340.88,760.95 354.04,782.68 354.04,782.68 C327.71,810.99 303.35,794.53 303.35,794.53 C307.96,785.97 300.06,761.61 300.06,761.61 C300.06,761.61 310.59,649.03 317.18,643.77 C323.77,638.51 329.02,612.17 329.02,612.17 L323.13,522.68 L321.78,502.23 L378.4,476.55 L382.51,496.96 L386.51,517.17 L396.82,568.72 Z" id="Path" fill="#6A5C99"></path>
            <path d="M396.82,568.72 C396.82,568.72 390.63,586.26 382.73,606.4 C375.17,625.66 366.05,647.31 359.29,658.25 C345.51,680.64 343.51,749.76 343.51,749.76 C340.88,760.95 354.04,782.68 354.04,782.68 C327.71,810.99 303.35,794.53 303.35,794.53 C307.96,785.97 300.06,761.61 300.06,761.61 C300.06,761.61 310.59,649.03 317.18,643.77 C323.77,638.51 329.02,612.17 329.02,612.17 L323.13,522.68 L321.78,502.23 L378.4,476.55 L382.51,496.96 L386.51,517.17 L396.82,568.72 Z" id="Path" fill="#000000" opacity="0.1"></path>
            <path d="M446.2,786.63 C434.35,807.7 392.87,805.06 392.87,805.06 L392.87,743.17 C392.87,743.17 381.02,674.04 387.6,658.24 C394.18,642.44 384.97,613.47 384.97,613.47 L382.73,606.39 L355.88,521.55 L348.1,496.95 L436.98,496.95 C436.98,496.95 436.98,501.16 436.98,508.02 C437.09,534.35 437.63,599.65 440.25,614.8 C443.54,633.89 434.32,646.4 434.32,646.4 C434.32,646.4 439.59,724.08 434.98,748.4 C430.37,772.72 446.2,786.63 446.2,786.63 Z" id="Path" fill="#6A5C99"></path>
            <path d="M373.12,207.95 C373.12,207.95 359.29,246.13 331.64,259.95 C303.99,273.77 377.07,277.73 377.07,277.73 C377.07,277.73 388.92,248.73 415.91,228.35 L373.12,207.95 Z" id="Path" fill="#F7C4A7"></path>
            <path d="M437.01,508.03 C425.99,510.17 406.51,513.93 386.51,517.17 C376.05,518.87 365.46,520.43 355.88,521.56 C341.15,523.3 328.82,524.04 323.11,522.67 L321.76,502.22 L378.38,476.54 L382.51,496.96 L437.02,496.96 C437.02,496.96 436.98,501.17 437.01,508.03 Z" id="Path" fill="#000000" opacity="0.1"></path>
            <path d="M446.2,504.17 C446.2,504.17 334.94,527.17 321.12,519.97 C307.3,512.77 304,494.29 307.95,473.89 C311.9,453.49 307.95,402.79 300.71,338.27 C297.06,305.78 305.1,283.98 313.98,270.33 C321.750462,258.457189 334.990449,251.310605 349.18,251.33 C361.256513,251.287532 372.977158,255.416958 382.36,263.02 C385.14,265.29 387.95,267.16 390.24,267.79 C392.05,268.28 394.77,270.26 397.82,272.94 C411.650125,285.201014 420.274547,302.281733 421.93,320.69 C423.08,332.95 424.28,348.4 424.87,364.02 C425.479125,377.350298 425.348925,390.704113 424.48,404.02 C423.868263,413.766824 424.320937,423.551293 425.83,433.2 C430.94,468.86 446.2,504.17 446.2,504.17 Z" id="Path" fill="#575988"></path>
            <path d="M425.82,433.32 C385.44,408.13 364.56,337.64 364.56,337.64 C364.56,337.03 364.56,336.42 364.49,335.83 C363.59,303.51 410.01,297.28 417.89,328.65 C420.45,338.87 422.64,349.22 423.1,356.39 C423.347955,359.022502 423.939654,361.611187 424.86,364.09 C425.469125,377.420298 425.338925,390.774113 424.47,404.09 C423.854614,413.853426 424.307297,423.65486 425.82,433.32 Z" id="Path" fill="#000000" opacity="0.1"></path>
            <path d="M366.21,230.66 C372.77,241.79 377.97,253.01 391.31,254.9 C397.831031,246.408112 405.439469,238.80976 413.94,232.3 L371.15,211.89 C371.15,211.89 373.62,218.87 366.21,230.66 Z" id="Path" fill="#000000" opacity="0.1"></path>
            <circle id="Oval" fill="#F7C4A7" cx="399.46" cy="207.95" r="43.45"></circle>
            <path d="M442.41,221.57 C444.213938,221.64254 445.995919,221.153368 447.51,220.17 C449.59,218.62 450.26,215.83 450.73,213.28 C451.86,207.28 452.73,200.88 450.73,195.06 C449.43,191.21 446.96,187.89 445.17,184.24 C441.26,176.24 440.57,166.68 435.01,159.76 C431.53,155.43 419.33,159.76 414.22,157.57 C403.22,152.85 398.5,143.27 386.56,143.28 C382.167383,143.167421 377.783379,143.727225 373.56,144.94 C368.22,146.62 363.5,149.84 359.12,153.32 C351.48,159.39 344.04,167.72 344.72,177.46 C345.16,183.68 348.86,189.12 351.04,194.96 C354.7,204.74 354.04,215.69 351.39,225.79 C350.27,230.09 348.98,235.23 351.96,238.53 C353.82,240.58 356.88,241.18 359.61,240.72 C362.315387,240.111464 364.900681,239.057069 367.26,237.6 C371.54,235.27 375.88,232.9 379.34,229.48 C381.63,227.21 383.48,224.54 385.66,222.17 C389.911077,217.648364 394.743231,213.71068 400.03,210.46 C404.25,207.87 408.58,209.46 413.03,211.17 C422.72,214.85 431.71,221.77 442.41,221.57 Z" id="Path" fill="#000000" opacity="0.1"></path>
            <path d="M441.75,220.91 C443.551804,220.988472 445.333614,220.506335 446.85,219.53 C448.93,217.98 449.6,215.19 450.07,212.64 C451.2,206.64 452.07,200.24 450.07,194.42 C448.77,190.57 446.3,187.25 444.51,183.6 C440.6,175.6 439.91,166.04 434.35,159.12 C430.87,154.79 419.35,159.79 414.22,157.59 C403.22,152.87 397.84,142.59 385.9,142.59 C381.507383,142.477421 377.123379,143.037225 372.9,144.25 C367.56,145.93 362.84,149.15 358.46,152.63 C350.82,158.7 343.38,167.03 344.06,176.77 C344.5,182.99 348.2,188.43 350.38,194.27 C354.04,204.05 353.38,215 350.73,225.1 C349.61,229.4 348.32,234.54 351.3,237.84 C353.16,239.89 356.22,240.49 358.95,240.03 C361.655387,239.421464 364.240681,238.367069 366.6,236.91 C370.88,234.58 375.22,232.21 378.68,228.79 C380.97,226.52 382.82,223.85 385,221.48 C389.296764,216.962682 394.176383,213.038137 399.51,209.81 C403.73,207.22 408.06,208.81 412.51,210.52 C422.06,214.17 431.05,221.11 441.75,220.91 Z" id="Path" fill="#632652"></path>
            <path d="M425.82,433.32 C424.326478,423.679695 423.887222,413.905412 424.51,404.17 C425.378925,390.854113 425.509125,377.500298 424.9,364.17 C424.31,348.55 423.11,333.11 421.96,320.84 C420.304547,302.431733 411.680125,285.351014 397.85,273.09 C394.8,270.4 392.08,268.43 390.27,267.94 C387.98,267.31 385.17,265.44 382.39,263.17 C373.04,255.53 384.92,270.41 387.98,273.09 C401.810125,285.351014 410.434547,302.431733 412.09,320.84 C413.24,333.1 414.44,348.55 415.03,364.17 C415.639125,377.500298 415.508925,390.854113 414.64,404.17 C414.028263,413.916824 414.480937,423.701293 415.99,433.35 C421.11,468.89 436.37,504.23 436.37,504.23 C436.37,504.23 361.89,519.65 327.24,521.3 C354.4,523.3 446.24,504.23 446.24,504.23 C446.24,504.23 430.94,468.86 425.82,433.32 Z" id="Path" fill="#000000" opacity="0.05"></path>
            <path d="M516.64,439.69 C496.23,463.39 466.64,447.59 466.64,447.59 C465.44,445.59 455.94,440.16 448.64,436.23 C443.99,433.7 440.26,431.79 440.26,431.79 L455.4,419.28 L463.06,423.28 L474.51,429.17 C474.51,429.17 537.05,415.99 516.64,439.69 Z" id="Path" fill="#F7C4A7"></path>
            <path d="M463.08,423.24 L448.66,436.24 C444.01,433.71 440.28,431.8 440.28,431.8 L455.42,419.29 L463.08,423.24 Z" id="Path" fill="#000000" opacity="0.1"></path>
            <path d="M365.88,335.67 C365.88,335.67 392.21,424.55 442.88,438.37 L462.63,420.59 C462.63,420.59 425.63,373.82 424.4,354.41 C423.93,347.24 421.75,336.88 419.18,326.67 C411.3,295.31 364.88,301.53 365.79,333.85 C365.823333,334.45 365.853333,335.056667 365.88,335.67 Z" id="Path" fill="#575988"></path>
            <path d="M314.86,422.24 C314.86,422.24 331.98,408.41 347.78,418.95 C363.58,429.49 386.62,428.17 389.91,428.83" id="Path" fill="#000000" opacity="0.05"></path>
        </g>
    </g>
</svg>